<?xml version="1.0" encoding="UTF-8" standalone="no"?>
<!DOCTYPE svg PUBLIC "-//W3C//DTD SVG 1.1//EN" "http://www.w3.org/Graphics/SVG/1.1/DTD/svg11.dtd">
<svg width="100%" height="100%" viewBox="0 0 573 375" version="1.1" xmlns="http://www.w3.org/2000/svg" xmlns:xlink="http://www.w3.org/1999/xlink" xml:space="preserve" xmlns:serif="http://www.serif.com/" style="fill-rule:evenodd;clip-rule:evenodd;stroke-linejoin:round;stroke-miterlimit:2;">
    <g transform="matrix(1,0,0,1,-10092.1,-1248.43)">
        <g transform="matrix(4.16667,0,0,4.16667,9604.69,0)">
            <g transform="matrix(0,0.595098,-0.592457,0,312.107,240.192)">
                <path d="M179.62,189.84L209.33,189.84L209.33,273.37L179.62,273.37L179.62,189.84" style="fill:rgb(126,205,80);fill-rule:nonzero;"/>
            </g>
        </g>
        <g transform="matrix(4.16667,0,0,4.16667,9604.69,0)">
            <g transform="matrix(0.592457,0,0,-0.595098,59.673,493.751)">
                <path d="M236.24,246.46L233.74,246.46L233.74,219.25L155.21,219.25L155.21,243.96L236.24,243.96L236.24,246.46L233.74,246.46L236.24,246.46L236.24,248.96L152.71,248.96C152.05,248.96 151.41,248.69 150.94,248.23C150.48,247.76 150.21,247.12 150.21,246.46L150.21,216.75C150.21,216.1 150.48,215.45 150.94,214.98C151.41,214.52 152.05,214.25 152.71,214.25L236.24,214.25C236.9,214.25 237.55,214.52 238.01,214.98C238.48,215.45 238.74,216.1 238.74,216.75L238.74,246.46C238.74,247.12 238.48,247.76 238.01,248.23C237.55,248.69 236.9,248.96 236.24,248.96L236.24,246.46" style="fill:rgb(4,5,5);fill-rule:nonzero;"/>
            </g>
        </g>
        <g transform="matrix(4.16667,0,0,4.16667,9604.69,0)">
            <g transform="matrix(0.592457,0,0,-0.595098,59.673,484.128)">
                <path d="M236.24,226.02L154.96,226.02C153.59,226.02 152.46,224.9 152.46,223.52C152.46,222.14 153.59,221.02 154.96,221.02L236.24,221.02C237.62,221.02 238.74,222.14 238.74,223.52C238.74,224.9 237.62,226.02 236.24,226.02" style="fill:rgb(4,5,5);fill-rule:nonzero;"/>
            </g>
        </g>
        <g transform="matrix(4.16667,0,0,4.16667,9604.69,0)">
            <g transform="matrix(0.592457,0,0,-0.595098,59.673,494.09)">
                <path d="M236.24,234.39L152.71,234.39C151.33,234.39 150.21,233.26 150.21,231.89C150.21,230.51 151.33,229.39 152.71,229.39L236.24,229.39C237.62,229.39 238.74,230.51 238.74,231.89C238.74,233.26 237.62,234.39 236.24,234.39" style="fill:rgb(4,5,5);fill-rule:nonzero;"/>
            </g>
        </g>
        <g transform="matrix(4.16667,0,0,4.16667,9604.69,0)">
            <g transform="matrix(0.592457,0,0,-0.595098,59.673,501.565)">
                <path d="M236.24,240.67L154.96,240.67C153.59,240.67 152.46,239.55 152.46,238.17C152.46,236.79 153.59,235.67 154.96,235.67L236.24,235.67C237.62,235.67 238.74,236.79 238.74,238.17C238.74,239.55 237.62,240.67 236.24,240.67" style="fill:rgb(4,5,5);fill-rule:nonzero;"/>
            </g>
        </g>
        <g transform="matrix(4.16667,0,0,4.16667,9604.69,0)">
            <g transform="matrix(-0.592457,0,0,-0.595098,288.438,493.751)">
                <path d="M182.06,216.75L204.07,216.75L204.07,246.46L182.06,246.46L182.06,216.75" style="fill:rgb(242,241,249);fill-rule:nonzero;"/>
            </g>
        </g>
        <g transform="matrix(4.16667,0,0,4.16667,9604.69,0)">
            <g transform="matrix(0.592457,0,0,-0.595098,59.673,493.751)">
                <path d="M204.07,216.75L204.07,219.25L184.56,219.25L184.56,243.96L201.57,243.96L201.57,216.75L204.07,216.75L204.07,219.25L204.07,216.75L206.57,216.75L206.57,246.46C206.57,247.12 206.3,247.76 205.84,248.23C205.37,248.69 204.73,248.96 204.07,248.96L182.06,248.96C181.4,248.96 180.76,248.69 180.29,248.23C179.82,247.76 179.56,247.12 179.56,246.46L179.56,216.75C179.56,216.1 179.82,215.45 180.29,214.98C180.76,214.52 181.4,214.25 182.06,214.25L204.07,214.25C204.73,214.25 205.37,214.52 205.84,214.98C206.3,215.45 206.57,216.1 206.57,216.75L204.07,216.75" style="fill:rgb(4,5,5);fill-rule:nonzero;"/>
            </g>
        </g>
        <g transform="matrix(4.16667,0,0,4.16667,9604.69,0)">
            <g transform="matrix(0,0.595098,-0.592457,0,295.945,218.018)">
                <path d="M199.47,182.24C208.91,182.24 216.56,189.9 216.56,199.34C216.56,208.78 208.91,216.43 199.47,216.43C190.02,216.43 182.37,208.78 182.37,199.34C182.37,189.9 190.02,182.24 199.47,182.24" style="fill:rgb(251,203,65);fill-rule:nonzero;"/>
            </g>
        </g>
        <g transform="matrix(4.16667,0,0,4.16667,9604.69,0)">
            <g transform="matrix(0.592457,0,0,-0.595098,59.673,455.343)">
                <path d="M216.56,199.33L214.06,199.33C214.06,195.29 212.43,191.66 209.78,189.01C207.13,186.37 203.5,184.74 199.46,184.74C195.42,184.74 191.79,186.37 189.14,189.01C186.5,191.66 184.87,195.29 184.87,199.33C184.87,203.37 186.5,207.01 189.14,209.65C191.79,212.3 195.42,213.93 199.46,213.93C203.5,213.93 207.13,212.3 209.78,209.65C212.43,207.01 214.06,203.37 214.06,199.33L219.06,199.33C219.06,210.16 210.29,218.93 199.46,218.93C188.64,218.93 179.87,210.16 179.87,199.33C179.87,188.51 188.64,179.74 199.46,179.74C204.86,179.74 209.78,181.94 213.32,185.48C216.86,189.01 219.06,193.93 219.06,199.33L216.56,199.33" style="fill:rgb(4,5,5);fill-rule:nonzero;"/>
            </g>
        </g>
        <g transform="matrix(4.16667,0,0,4.16667,9604.69,0)">
            <g transform="matrix(0.592457,0,0,-0.595098,59.673,521.263)">
                <path d="M173.71,265.12C173.71,265.12 183.94,263.89 193.69,263.03C199.49,262.52 200.07,266.63 200.01,268.2C199.89,271.33 196.34,271.92 196.34,271.92C196.34,271.92 173.23,277.01 169.98,277.4C166.73,277.8 163.12,277.4 157.7,274.66C152.29,271.92 135.32,264.47 135.32,264.47L135.32,237.03C135.32,237.03 180.13,233.69 185.51,232.71C191.45,231.64 197.06,235.2 197.06,235.2C209.34,241.34 236.05,252.8 239.3,255.02C243.87,258.16 243.09,261.42 243.09,261.42C243.09,263.78 238.58,264.96 238.58,264.96C229.67,266.65 203.07,256.66 203.07,256.66C201.27,256.66 177.84,261.43 177.84,261.43C177.84,261.43 175.04,264.08 173.71,265.12" style="fill:rgb(249,181,124);fill-rule:nonzero;"/>
            </g>
        </g>
        <g transform="matrix(4.16667,0,0,4.16667,9604.69,0)">
            <g transform="matrix(0.592457,0,0,-0.595098,59.673,520.905)">
                <path d="M173.71,264.52L173.41,262.04C173.43,262.04 183.66,260.81 193.47,259.94C193.87,259.9 194.27,259.89 194.64,259.89C196.12,259.89 197.43,260.16 198.54,260.69C199.37,261.08 200.07,261.62 200.62,262.22C201.45,263.13 201.91,264.14 202.18,265.04C202.44,265.94 202.51,266.75 202.51,267.39C202.51,267.49 202.51,267.58 202.5,267.66L202.5,267.7C202.46,268.95 202.04,270.1 201.43,270.95C200.5,272.23 199.33,272.89 198.44,273.27C197.54,273.65 196.87,273.76 196.74,273.79L196.34,271.32L196.88,273.76C196.87,273.76 191.09,275.04 184.9,276.36C181.8,277.02 178.61,277.7 175.96,278.23C174.64,278.5 173.47,278.73 172.5,278.91C171.54,279.09 170.81,279.22 170.28,279.29C169.52,279.38 168.73,279.43 167.9,279.43C166.32,279.43 164.6,279.23 162.73,278.73C160.87,278.23 158.84,277.44 156.57,276.29C155.28,275.63 153.21,274.66 150.88,273.58C147.36,271.96 143.22,270.11 139.96,268.66C138.33,267.93 136.91,267.3 135.91,266.86C134.91,266.42 134.32,266.16 134.32,266.16C133.4,265.76 132.82,264.86 132.82,263.87L132.82,236.43C132.82,235.12 133.83,234.03 135.13,233.93C135.14,233.93 135.83,233.88 137.07,233.79C141.39,233.46 152.27,232.64 162.66,231.78C167.85,231.36 172.91,230.92 176.97,230.54C178.99,230.36 180.77,230.18 182.16,230.03C183.56,229.88 184.61,229.74 185.06,229.66C186,229.48 186.93,229.41 187.82,229.41C190.77,229.42 193.36,230.19 195.24,230.93C197.12,231.68 198.3,232.43 198.4,232.49L197.06,234.6L198.18,232.36C204.23,235.39 213.98,239.79 222.6,243.7C226.91,245.66 230.95,247.49 234.12,248.99C235.71,249.73 237.08,250.39 238.18,250.95C238.73,251.23 239.21,251.48 239.63,251.71C240.05,251.94 240.39,252.14 240.71,252.36C242.71,253.72 243.98,255.23 244.72,256.66C245.46,258.07 245.64,259.38 245.64,260.25C245.64,260.84 245.56,261.24 245.52,261.4L243.09,260.82L245.59,260.82C245.59,261.52 245.42,262.18 245.15,262.73C244.68,263.7 244.01,264.33 243.37,264.82C242.39,265.56 241.4,266 240.62,266.3C239.84,266.61 239.27,266.75 239.21,266.77L239.05,266.81C238.14,266.98 237.19,267.05 236.18,267.05C233.22,267.04 229.73,266.48 226.03,265.66C220.5,264.44 214.57,262.63 210,261.12C205.43,259.61 202.22,258.41 202.2,258.4L203.07,256.06L203.07,258.56L203.07,257.75L203.12,258.56L203.07,258.56L203.07,257.75L203.12,258.56C203.11,258.56 202.9,258.58 202.64,258.62C201.61,258.76 199.52,259.13 197.04,259.59C193.3,260.29 188.62,261.22 184.88,261.96C183.01,262.34 181.38,262.66 180.21,262.9C179.04,263.14 178.34,263.28 178.34,263.28L177.84,260.83L179.56,262.65C179.55,262.65 178.84,263.32 177.96,264.13C177.52,264.53 177.03,264.97 176.57,265.38C176.1,265.79 175.65,266.17 175.26,266.48L173.71,264.52L173.41,262.04L173.71,264.52L172.16,262.56C172.43,262.35 172.83,262 173.27,261.63C173.91,261.05 174.63,260.39 175.19,259.88C175.46,259.63 175.7,259.41 175.87,259.25C176.04,259.1 176.13,259.01 176.13,259.01C176.46,258.69 176.89,258.47 177.34,258.38C177.35,258.38 183.21,257.18 189.3,255.99C192.35,255.39 195.45,254.79 197.92,254.34C199.16,254.12 200.23,253.93 201.08,253.79C201.5,253.73 201.86,253.67 202.18,253.63C202.33,253.61 202.47,253.6 202.61,253.58C202.76,253.57 202.89,253.56 203.07,253.56C203.37,253.56 203.68,253.61 203.96,253.72L204.2,253.81C205.43,254.27 211.14,256.35 217.72,258.3C221.01,259.28 224.52,260.23 227.77,260.92C231.01,261.62 234.02,262.05 236.18,262.05C236.96,262.05 237.62,261.99 238.11,261.9L238.58,264.36L237.95,261.93L238.16,262.76L237.94,261.94L237.95,261.93L238.16,262.76L237.94,261.94C237.97,261.93 238.96,261.64 239.76,261.22C240.15,261.01 240.48,260.76 240.59,260.63L240.65,260.56L240.66,260.57L240.65,260.56L240.66,260.57L240.65,260.56L241.15,260.82L240.59,260.82C240.59,260.71 240.63,260.59 240.65,260.56L241.15,260.82L240.59,260.82C240.59,260.64 240.62,260.43 240.66,260.25L241.68,260.49L240.64,260.36L240.66,260.25L241.68,260.49L240.64,260.36L240.64,260.25C240.64,260.04 240.61,259.6 240.28,258.96C239.95,258.32 239.3,257.46 237.89,256.48C237.8,256.43 237.55,256.27 237.22,256.09C236.58,255.74 235.61,255.25 234.4,254.66C230.18,252.61 223.08,249.41 215.8,246.11C208.52,242.8 201.05,239.39 195.94,236.83C195.85,236.79 195.81,236.77 195.72,236.71L196.15,236.03L195.73,236.71L195.72,236.71L196.15,236.03L195.73,236.71C195.7,236.69 194.72,236.09 193.25,235.52C191.78,234.95 189.81,234.41 187.82,234.41C187.2,234.41 186.57,234.46 185.95,234.57C185.53,234.65 185.02,234.72 184.37,234.8C181.95,235.11 177.74,235.51 172.71,235.95C157.66,237.27 135.51,238.92 135.51,238.92L135.32,236.43L137.82,236.43L137.82,263.87L135.32,263.87L136.32,261.58C136.33,261.58 140.57,263.45 145.5,265.66C147.97,266.76 150.61,267.95 152.97,269.04C155.34,270.13 157.42,271.11 158.84,271.83C160.86,272.86 162.56,273.5 164.03,273.9C165.5,274.29 166.74,274.43 167.9,274.43C168.5,274.43 169.09,274.39 169.68,274.32C169.96,274.29 170.67,274.17 171.58,274C174.82,273.39 180.9,272.11 186.14,270.98C188.76,270.41 191.18,269.89 192.93,269.5C194.7,269.12 195.79,268.88 195.8,268.88L195.93,268.85L196.11,269.9L195.9,268.86L195.93,268.85L196.11,269.9L195.9,268.86C195.91,268.86 196.53,268.71 196.93,268.43C197.14,268.3 197.28,268.16 197.36,268.04C197.43,267.91 197.49,267.8 197.51,267.51L200.01,267.6L197.51,267.54L197.51,267.39C197.51,267.17 197.48,266.85 197.41,266.55C197.35,266.32 197.27,266.1 197.16,265.92C197,265.65 196.83,265.45 196.5,265.26C196.18,265.08 195.63,264.89 194.64,264.89C194.42,264.89 194.18,264.9 193.91,264.92C189.06,265.35 184.08,265.87 180.32,266.29C178.43,266.49 176.86,266.67 175.75,266.8C174.64,266.93 174.01,267 174.01,267C172.9,267.14 171.83,266.52 171.4,265.48C170.97,264.45 171.28,263.25 172.16,262.56L173.71,264.52" style="fill:rgb(4,5,5);fill-rule:nonzero;"/>
            </g>
        </g>
        <g transform="matrix(4.16667,0,0,4.16667,9604.69,0)">
            <g transform="matrix(0.592457,0,0,-0.595098,59.673,527.618)">
                <path d="M126.84,239.48L143.8,239.48L143.8,280.64L126.84,280.64L126.84,239.48" style="fill:rgb(242,241,249);fill-rule:nonzero;"/>
            </g>
        </g>
        <g transform="matrix(4.16667,0,0,4.16667,9604.69,0)">
            <g transform="matrix(0.592457,0,0,-0.595098,59.673,527.618)">
                <path d="M126.84,239.48L126.84,236.98L143.8,236.98C144.46,236.98 145.11,237.24 145.57,237.71C146.04,238.17 146.3,238.82 146.3,239.48L146.3,280.64C146.3,281.3 146.04,281.94 145.57,282.4C145.11,282.87 144.46,283.14 143.8,283.14L126.84,283.14C126.18,283.14 125.53,282.87 125.07,282.41C124.6,281.94 124.33,281.3 124.33,280.64L124.33,239.48C124.33,238.82 124.6,238.17 125.07,237.71C125.53,237.24 126.18,236.98 126.84,236.98L126.84,239.48L129.34,239.48L129.34,278.14L141.3,278.14L141.3,241.98L126.84,241.98L126.84,239.48L129.34,239.48L126.84,239.48" style="fill:rgb(4,5,5);fill-rule:nonzero;"/>
            </g>
        </g>
        <g transform="matrix(4.16667,0,0,4.16667,9604.69,0)">
            <g transform="matrix(0.592457,0,0,-0.595098,59.673,530.385)">
                <path d="M99.215,239.07L135.32,239.07L135.32,285.7L99.215,285.7L99.215,239.07" style="fill:rgb(44,81,137);fill-rule:nonzero;"/>
            </g>
        </g>
        <g transform="matrix(4.16667,0,0,4.16667,9604.69,0)">
            <g transform="matrix(0.592457,0,0,-0.595098,59.673,530.385)">
                <path d="M99.215,239.07L99.215,236.57L135.32,236.57C135.98,236.57 136.62,236.84 137.09,237.31C137.55,237.77 137.82,238.41 137.82,239.07L137.82,285.7C137.82,286.35 137.55,287 137.09,287.46C136.62,287.93 135.98,288.2 135.32,288.2L99.215,288.2C98.555,288.2 97.914,287.93 97.445,287.46C96.98,287 96.715,286.35 96.715,285.7L96.715,239.07C96.715,238.41 96.98,237.77 97.445,237.31C97.914,236.84 98.555,236.57 99.215,236.57L99.215,239.07L101.71,239.07L101.71,283.2L132.82,283.2L132.82,241.57L99.215,241.57L99.215,239.07L101.71,239.07L99.215,239.07" style="fill:rgb(4,5,5);fill-rule:nonzero;"/>
            </g>
        </g>
        <g transform="matrix(4.16667,0,0,4.16667,9604.69,0)">
            <g transform="matrix(0.592457,0,0,-0.595098,59.673,421)">
                <path d="M251.49,160.08C251.49,160.08 241.27,161.31 231.51,162.17C225.71,162.68 225.13,158.57 225.19,157C225.31,153.86 228.86,153.28 228.86,153.28C228.86,153.28 251.97,148.19 255.22,147.8C258.47,147.4 262.08,147.8 267.5,150.54C272.91,153.28 289.88,160.73 289.88,160.73L289.88,188.17C289.88,188.17 245.07,191.51 239.7,192.48C233.75,193.56 228.14,190 228.14,190C215.86,183.86 189.14,172.4 185.9,170.18C181.32,167.04 182.11,163.77 182.11,163.77C182.11,161.42 186.62,160.25 186.62,160.25C195.53,158.55 222.12,168.54 222.12,168.54C223.93,168.54 247.36,163.77 247.36,163.77C247.36,163.77 250.16,161.12 251.49,160.08" style="fill:rgb(249,181,124);fill-rule:nonzero;"/>
            </g>
        </g>
        <g transform="matrix(4.16667,0,0,4.16667,9604.69,0)">
            <g transform="matrix(0.592457,0,0,-0.595098,59.673,421.363)">
                <path d="M251.49,160.69L251.79,163.17C251.77,163.17 241.54,164.4 231.73,165.27C231.32,165.3 230.93,165.32 230.55,165.32C229.08,165.32 227.77,165.05 226.66,164.52C225.83,164.12 225.12,163.59 224.58,162.99C223.75,162.09 223.29,161.07 223.02,160.18C222.76,159.27 222.69,158.46 222.69,157.82C222.69,157.71 222.69,157.59 222.7,157.46L225.19,157.61L222.7,157.52C222.73,156.26 223.16,155.11 223.77,154.26C224.7,152.98 225.87,152.32 226.76,151.94C227.66,151.56 228.33,151.45 228.46,151.43L228.86,153.89L228.33,151.45C228.33,151.45 234.11,150.18 240.3,148.85C243.4,148.19 246.6,147.51 249.23,146.98C250.55,146.71 251.73,146.48 252.7,146.3C253.66,146.11 254.39,145.99 254.92,145.92C255.68,145.83 256.47,145.78 257.3,145.78C258.88,145.77 260.59,145.98 262.46,146.48C264.33,146.98 266.36,147.77 268.62,148.92C269.92,149.58 271.99,150.55 274.32,151.63C277.84,153.25 281.98,155.11 285.24,156.55C286.88,157.28 288.29,157.91 289.29,158.35C290.29,158.79 290.88,159.05 290.89,159.05C291.8,159.45 292.38,160.35 292.38,161.34L292.38,188.78C292.38,190.09 291.37,191.18 290.07,191.28C290.06,191.28 289.37,191.33 288.13,191.42C283.81,191.75 272.93,192.58 262.54,193.43C257.35,193.86 252.29,194.29 248.23,194.67C246.21,194.86 244.43,195.03 243.04,195.18C241.64,195.34 240.59,195.47 240.14,195.55C239.2,195.73 238.27,195.8 237.38,195.8C234.43,195.79 231.84,195.02 229.96,194.28C228.08,193.53 226.9,192.78 226.8,192.72L228.14,190.61L227.02,192.85C220.97,189.82 211.22,185.42 202.6,181.51C198.29,179.55 194.25,177.71 191.08,176.22C189.49,175.47 188.12,174.81 187.02,174.26C186.46,173.98 185.98,173.73 185.57,173.5C185.15,173.27 184.81,173.07 184.48,172.85C182.49,171.48 181.22,169.98 180.48,168.56C179.74,167.14 179.55,165.84 179.56,164.96C179.56,164.36 179.64,163.95 179.68,163.79L182.11,164.38L179.61,164.38C179.61,163.69 179.79,163.02 180.05,162.48C180.52,161.51 181.19,160.87 181.83,160.38C182.8,159.65 183.8,159.21 184.58,158.91C185.36,158.6 185.93,158.45 185.99,158.44L186.15,158.4C187.06,158.23 188.01,158.16 189.02,158.16C191.97,158.17 195.46,158.73 199.16,159.55C204.7,160.77 210.63,162.58 215.2,164.09C219.77,165.6 222.98,166.8 223,166.81L222.12,169.15L222.12,166.65L222.12,167.46L222.07,166.65L222.12,166.65L222.12,167.46L222.07,166.65C222.1,166.65 222.3,166.63 222.56,166.59C223.59,166.45 225.68,166.08 228.16,165.62C231.9,164.92 236.58,164 240.32,163.25C242.19,162.87 243.82,162.55 244.99,162.31C246.16,162.07 246.86,161.93 246.86,161.93L247.36,164.38L245.64,162.56C245.64,162.56 246.36,161.89 247.24,161.08C247.68,160.68 248.17,160.24 248.63,159.83C249.1,159.42 249.54,159.04 249.94,158.73L251.49,160.69L251.79,163.17L251.49,160.69L253.04,162.65C252.77,162.86 252.37,163.2 251.94,163.58C251.29,164.16 250.57,164.81 250.01,165.33C249.73,165.58 249.5,165.8 249.33,165.96C249.16,166.11 249.07,166.2 249.07,166.2C248.73,166.52 248.31,166.74 247.86,166.83C247.85,166.83 241.99,168.03 235.9,169.22C232.85,169.82 229.75,170.41 227.28,170.87C226.04,171.09 224.96,171.28 224.12,171.41C223.7,171.48 223.34,171.53 223.02,171.58C222.87,171.6 222.73,171.61 222.59,171.62C222.44,171.64 222.31,171.65 222.12,171.65C221.82,171.65 221.52,171.59 221.24,171.49L221,171.4C219.77,170.95 214.06,168.86 207.48,166.91C204.19,165.93 200.68,164.98 197.43,164.28C194.18,163.59 191.17,163.16 189.02,163.16C188.24,163.16 187.58,163.22 187.09,163.31L186.62,160.86L187.25,163.27L187.05,162.5L187.26,163.27L187.25,163.27L187.05,162.5L187.26,163.27C187.23,163.28 186.23,163.56 185.45,164C185.05,164.2 184.72,164.45 184.61,164.58L184.55,164.65L184.54,164.64L184.55,164.64L184.55,164.65L184.54,164.64L184.55,164.64L184.05,164.38L184.61,164.38C184.61,164.5 184.57,164.62 184.55,164.64L184.05,164.38L184.61,164.38C184.61,164.59 184.59,164.77 184.54,164.98L183.49,164.72L184.56,164.86L184.54,164.98L183.49,164.72L184.56,164.86L184.56,164.96C184.56,165.17 184.59,165.61 184.92,166.25C185.25,166.89 185.9,167.75 187.31,168.73C187.39,168.78 187.64,168.93 187.98,169.12C188.62,169.47 189.59,169.96 190.79,170.55C195.02,172.6 202.12,175.8 209.39,179.1C216.68,182.41 224.16,185.82 229.26,188.38C229.36,188.43 229.39,188.45 229.48,188.5L229.07,189.16L229.48,188.5L229.07,189.16L229.48,188.5C229.51,188.52 230.48,189.12 231.95,189.69C233.42,190.27 235.39,190.8 237.38,190.8C238,190.8 238.63,190.75 239.25,190.64C239.67,190.56 240.19,190.49 240.84,190.41C243.25,190.11 247.46,189.7 252.48,189.26C267.54,187.94 289.69,186.29 289.7,186.29L289.88,188.78L287.38,188.78L287.38,161.34L289.88,161.34L288.88,163.63C288.87,163.63 284.62,161.77 279.7,159.55C277.23,158.45 274.6,157.26 272.23,156.17C269.86,155.08 267.78,154.09 266.37,153.38C264.34,152.36 262.64,151.71 261.17,151.31C259.7,150.92 258.45,150.78 257.3,150.78C256.69,150.78 256.11,150.82 255.52,150.89C255.24,150.92 254.53,151.04 253.62,151.21C250.38,151.82 244.3,153.1 239.06,154.23C236.44,154.8 234.03,155.32 232.27,155.71C230.51,156.09 229.41,156.33 229.4,156.34L229.27,156.36L229.09,155.3L229.3,156.36L229.27,156.36L229.09,155.3L229.3,156.36C229.29,156.35 228.67,156.5 228.27,156.77C228.06,156.91 227.92,157.05 227.84,157.17C227.77,157.3 227.71,157.41 227.69,157.7L227.69,157.82C227.69,158.04 227.71,158.36 227.79,158.66C227.85,158.89 227.93,159.11 228.03,159.29C228.19,159.56 228.36,159.76 228.69,159.95C229.02,160.13 229.57,160.32 230.55,160.32C230.78,160.32 231.02,160.31 231.29,160.29C236.14,159.86 241.12,159.34 244.88,158.93C246.77,158.72 248.34,158.54 249.45,158.41C250.56,158.28 251.19,158.21 251.19,158.21C252.3,158.07 253.37,158.69 253.8,159.73C254.23,160.76 253.91,161.95 253.04,162.65L251.49,160.69" style="fill:rgb(4,5,5);fill-rule:nonzero;"/>
            </g>
        </g>
        <g transform="matrix(4.16667,0,0,4.16667,9604.69,0)">
            <g transform="matrix(-0.592457,0,0,-0.595098,403.15,414.639)">
                <path d="M281.39,185.72L298.36,185.72L298.36,144.55L281.39,144.55L281.39,185.72" style="fill:rgb(242,241,249);fill-rule:nonzero;"/>
            </g>
        </g>
        <g transform="matrix(4.16667,0,0,4.16667,9604.69,0)">
            <g transform="matrix(0.592457,0,0,-0.595098,59.673,414.639)">
                <path d="M298.36,185.72L298.36,188.22L281.39,188.22C280.74,188.22 280.09,187.95 279.63,187.48C279.16,187.02 278.89,186.38 278.89,185.72L278.89,144.55C278.89,143.89 279.16,143.25 279.63,142.79C280.09,142.32 280.74,142.05 281.39,142.05L298.36,142.05C299.02,142.05 299.67,142.32 300.13,142.79C300.6,143.25 300.86,143.89 300.86,144.55L300.86,185.72C300.86,186.38 300.6,187.02 300.13,187.48C299.67,187.95 299.02,188.22 298.36,188.22L298.36,185.72L295.86,185.72L295.86,147.05L283.89,147.05L283.89,183.22L298.36,183.22L298.36,185.72L295.86,185.72L298.36,185.72" style="fill:rgb(4,5,5);fill-rule:nonzero;"/>
            </g>
        </g>
        <g transform="matrix(4.16667,0,0,4.16667,9604.69,0)">
            <g transform="matrix(-0.592457,0,0,-0.595098,424.544,411.872)">
                <path d="M289.88,186.12L325.98,186.12L325.98,139.5L289.88,139.5L289.88,186.12" style="fill:rgb(44,81,137);fill-rule:nonzero;"/>
            </g>
        </g>
        <g transform="matrix(4.16667,0,0,4.16667,9604.69,0)">
            <g transform="matrix(0.592457,0,0,-0.595098,59.673,411.872)">
                <path d="M325.98,186.12L325.98,188.62L289.88,188.62C289.22,188.62 288.58,188.35 288.11,187.89C287.65,187.42 287.38,186.78 287.38,186.12L287.38,139.5C287.38,138.84 287.65,138.19 288.11,137.73C288.58,137.26 289.22,137 289.88,137L325.98,137C326.64,137 327.29,137.26 327.75,137.73C328.22,138.19 328.48,138.84 328.48,139.5L328.48,186.12C328.48,186.77 328.22,187.42 327.75,187.89C327.29,188.35 326.64,188.62 325.98,188.62L325.98,186.12L323.48,186.12L323.48,142L292.38,142L292.38,183.62L325.98,183.62L325.98,186.12L323.48,186.12L325.98,186.12" style="fill:rgb(4,5,5);fill-rule:nonzero;"/>
            </g>
        </g>
        <g transform="matrix(4.16667,0,0,4.16667,9604.69,0)">
            <g transform="matrix(0.592457,0,0,-0.595098,59.673,454.29)">
                <path d="M201.96,190.7L201.96,206.2C201.96,207.58 200.84,208.7 199.46,208.7C198.08,208.7 196.96,207.58 196.96,206.2L196.96,190.7C196.96,189.32 198.08,188.2 199.46,188.2C200.84,188.2 201.96,189.32 201.96,190.7" style="fill:rgb(4,5,5);fill-rule:nonzero;"/>
            </g>
        </g>
    </g>
</svg>
