<?xml version="1.0" encoding="UTF-8" standalone="no"?>
<!DOCTYPE svg PUBLIC "-//W3C//DTD SVG 1.1//EN" "http://www.w3.org/Graphics/SVG/1.1/DTD/svg11.dtd">
<svg width="100%" height="100%" viewBox="0 0 162 162" version="1.1" xmlns="http://www.w3.org/2000/svg" xmlns:xlink="http://www.w3.org/1999/xlink" xml:space="preserve" xmlns:serif="http://www.serif.com/" style="fill-rule:evenodd;clip-rule:evenodd;stroke-linejoin:round;stroke-miterlimit:2;">
    <g transform="matrix(1,0,0,1,-5596.26,-4401.91)">
        <g transform="matrix(4.16667,0,0,4.16667,4802.34,2700)">
            <g transform="matrix(1.29101,0,0,-1.29101,189.248,448.481)">
                <path d="M16,1C24.284,1 31,7.716 31,16C31,24.284 24.284,31 16,31C7.716,31 1,24.284 1,16C1,7.716 7.716,1 16,1ZM9.187,22.382L16,16.931L22.813,22.382L23.009,22.545L8.991,22.545L9.187,22.382ZM23.738,21.259L24,21.478L24,10.182C24,9.78 23.674,9.455 23.273,9.455L8.727,9.455C8.326,9.455 8,9.78 8,10.182L8,21.478L8.262,21.259L8.273,21.25L15.546,15.432C15.811,15.22 16.189,15.22 16.454,15.432L23.727,21.25L23.738,21.259Z" style="fill:white;"/>
            </g>
        </g>
    </g>
</svg>
