<?xml version="1.0" encoding="UTF-8" standalone="no"?>
<!DOCTYPE svg PUBLIC "-//W3C//DTD SVG 1.1//EN" "http://www.w3.org/Graphics/SVG/1.1/DTD/svg11.dtd">
<svg width="100%" height="100%" viewBox="0 0 473 472" version="1.1" xmlns="http://www.w3.org/2000/svg" xmlns:xlink="http://www.w3.org/1999/xlink" xml:space="preserve" xmlns:serif="http://www.serif.com/" style="fill-rule:evenodd;clip-rule:evenodd;stroke-linejoin:round;stroke-miterlimit:2;">
    <g transform="matrix(1,0,0,1,-8499.79,-1863.95)">
        <g transform="matrix(4.16667,0,0,4.16667,4802.34,0)">
            <g transform="matrix(0.913752,0,0,-0.913752,887.388,507.995)">
                <rect x="117.2" y="8.78" width="6.8" height="48.81" style="fill:rgb(255,192,90);"/>
            </g>
            <g transform="matrix(0.913752,0,0,-0.913752,887.388,513.614)">
                <rect x="105.41" y="14.93" width="6.8" height="42.66" style="fill:rgb(255,192,90);"/>
            </g>
            <g transform="matrix(0.913752,0,0,-0.913752,887.388,620.167)">
                <path d="M97.29,123.27L72.74,123.27C70.14,123.27 68.03,121.16 68.03,118.56L68.03,70.58C68.03,67.97 70.14,65.86 72.74,65.86L97.29,65.86C99.89,65.86 102,67.97 102,70.58L102,118.56C102,121.16 99.89,123.27 97.29,123.27Z" style="fill:rgb(255,192,90);fill-rule:nonzero;"/>
            </g>
            <g transform="matrix(0.913752,0,0,-0.913752,887.388,534.905)">
                <rect x="93.62" y="38.23" width="6.79" height="19.36" style="fill:rgb(255,192,90);"/>
            </g>
            <g transform="matrix(0.913752,0,0,-0.913752,887.388,520.413)">
                <rect x="81.82" y="22.37" width="6.8" height="35.22" style="fill:rgb(255,192,90);"/>
            </g>
            <g transform="matrix(0.913752,0,0,-0.913752,887.388,529.276)">
                <rect x="70.03" y="32.07" width="6.8" height="25.52" style="fill:rgb(255,192,90);"/>
            </g>
            <g transform="matrix(0.913752,0,0,-0.913752,887.388,557.337)">
                <path d="M56.79,30.55L56.79,30.56L55.9,31.99L50.77,40.19C54.68,43.44 56.79,48.2 56.79,53.07L56.79,104.01L11.18,104.01L0,92.37L0,16.36L56.79,16.36L56.79,21.87L59.01,18.32C59.74,17.16 61.2,16.76 62.28,17.44C62.95,17.86 63.31,18.6 63.31,19.38C63.31,19.85 63.18,20.33 62.91,20.76L56.79,30.55Z" style="fill:rgb(255,192,90);fill-rule:nonzero;"/>
            </g>
            <g transform="matrix(0.913752,0,0,-0.913752,887.388,615.16)">
                <path d="M119.98,83.23C119.428,83.23 118.98,82.782 118.98,82.23L118.98,68.33C118.98,67.299 118.137,66.46 117.1,66.46L116.42,66.46L116.42,112.72L114.62,117.52C114.429,118.029 114.077,118.373 113.669,118.588C113.691,118.671 113.72,118.751 113.72,118.84L113.72,122.95C113.72,123.502 113.272,123.95 112.72,123.95C112.168,123.95 111.72,123.502 111.72,122.95L111.72,118.84C111.72,118.751 111.749,118.67 111.771,118.588C111.363,118.373 111.011,118.029 110.82,117.52L109.01,112.72L109.01,65.46L110.61,65.46L110.61,61.81C110.61,61.23 110.84,60.7 111.23,60.32C111.61,59.93 112.14,59.7 112.72,59.7C113.88,59.7 114.83,60.64 114.83,61.81L114.83,65.46L115.42,65.46C115.42,64.908 115.868,64.46 116.42,64.46L117.1,64.46C119.239,64.46 120.98,66.196 120.98,68.33L120.98,82.23C120.98,82.782 120.532,83.23 119.98,83.23Z" style="fill:rgb(255,192,90);fill-rule:nonzero;"/>
            </g>
            <g transform="matrix(0.913752,0,0,-0.913752,887.388,469.535)">
                <path d="M90.241,13.907C90.765,13.749 91.191,13.393 91.436,12.912C92.109,11.566 93.467,10.729 94.98,10.729C95.634,10.729 96.251,10.878 96.812,11.171L112.972,19.571C112.981,19.576 112.986,19.584 112.994,19.589L114.441,16.988L119.35,24.28L110.57,23.94L112.023,21.334L95.887,12.946C95.613,12.803 95.308,12.73 94.98,12.73C94.23,12.73 93.557,13.143 93.221,13.814C92.722,14.793 91.868,15.505 90.818,15.822C89.773,16.137 88.677,16.015 87.731,15.482L63.491,1.872C63.01,1.601 62.838,0.992 63.109,0.51C63.293,0.183 63.632,0 63.982,0C64.148,0 64.316,0.041 64.471,0.128L88.713,13.739C89.18,14.004 89.722,14.064 90.241,13.907Z" style="fill:rgb(255,192,90);fill-rule:nonzero;"/>
            </g>
            <g transform="matrix(0.913752,0,0,-0.913752,887.388,608.535)">
                <path d="M85.01,90.86C86.48,90.86 87.68,89.67 87.68,88.2C87.68,86.73 86.48,85.54 85.01,85.54C83.54,85.54 82.35,86.73 82.35,88.2C82.35,89.67 83.54,90.86 85.01,90.86Z" style="fill:rgb(239,157,38);fill-rule:nonzero;"/>
            </g>
            <g transform="matrix(0.913752,0,0,-0.913752,887.388,625.403)">
                <path d="M78.35,97.43C78.35,97.077 78.282,96.738 78.148,96.412C78.013,96.086 77.82,95.799 77.571,95.549C77.321,95.3 77.034,95.107 76.708,94.972C76.382,94.838 76.043,94.77 75.69,94.77C75.337,94.77 74.998,94.838 74.672,94.972C74.346,95.107 74.059,95.3 73.809,95.549C73.56,95.799 73.367,96.086 73.232,96.412C73.097,96.738 73.03,97.077 73.03,97.43C73.03,97.783 73.097,98.122 73.232,98.448C73.367,98.774 73.56,99.061 73.809,99.311C74.059,99.56 74.346,99.753 74.672,99.888C74.998,100.023 75.337,100.09 75.69,100.09C76.043,100.09 76.382,100.023 76.708,99.888C77.034,99.753 77.321,99.56 77.571,99.311C77.82,99.061 78.013,98.774 78.148,98.448C78.283,98.122 78.35,97.783 78.35,97.43Z" style="fill:rgb(239,157,38);fill-rule:nonzero;"/>
            </g>
            <g transform="matrix(0.913752,0,0,-0.913752,887.388,625.403)">
                <path d="M97,97.43C97,97.077 96.932,96.738 96.798,96.412C96.663,96.086 96.47,95.799 96.221,95.549C95.971,95.3 95.684,95.107 95.358,94.972C95.032,94.838 94.693,94.77 94.34,94.77C93.987,94.77 93.648,94.838 93.322,94.972C92.996,95.107 92.709,95.3 92.459,95.549C92.21,95.799 92.017,96.086 91.882,96.412C91.747,96.738 91.68,97.077 91.68,97.43C91.68,97.783 91.747,98.122 91.882,98.448C92.017,98.774 92.21,99.061 92.459,99.311C92.709,99.56 92.996,99.753 93.322,99.888C93.648,100.023 93.987,100.09 94.34,100.09C94.693,100.09 95.032,100.023 95.358,99.888C95.684,99.753 95.971,99.56 96.221,99.311C96.47,99.061 96.663,98.774 96.798,98.448C96.932,98.122 97,97.783 97,97.43Z" style="fill:rgb(239,157,38);fill-rule:nonzero;"/>
            </g>
            <g transform="matrix(0.913752,0,0,-0.913752,887.388,642.28)">
                <path d="M85.01,109.33C86.48,109.33 87.68,108.13 87.68,106.66C87.68,105.2 86.48,104 85.01,104C83.54,104 82.35,105.2 82.35,106.66C82.35,108.13 83.54,109.33 85.01,109.33Z" style="fill:rgb(239,157,38);fill-rule:nonzero;"/>
            </g>
            <g transform="matrix(0.913752,0,0,-0.913752,887.388,659.157)">
                <path d="M78.35,115.9C78.35,115.547 78.282,115.208 78.148,114.882C78.013,114.556 77.82,114.269 77.571,114.019C77.321,113.77 77.034,113.577 76.708,113.442C76.382,113.308 76.043,113.24 75.69,113.24C75.337,113.24 74.998,113.308 74.672,113.442C74.346,113.577 74.059,113.77 73.809,114.019C73.56,114.269 73.367,114.556 73.232,114.882C73.097,115.208 73.03,115.547 73.03,115.9C73.03,116.253 73.097,116.592 73.232,116.918C73.367,117.244 73.56,117.532 73.809,117.781C74.059,118.03 74.346,118.223 74.672,118.358C74.998,118.493 75.337,118.56 75.69,118.56C76.043,118.56 76.382,118.493 76.708,118.358C77.034,118.223 77.321,118.03 77.571,117.781C77.82,117.532 78.013,117.244 78.148,116.918C78.283,116.592 78.35,116.253 78.35,115.9Z" style="fill:rgb(239,157,38);fill-rule:nonzero;"/>
            </g>
            <g transform="matrix(0.913752,0,0,-0.913752,887.388,659.157)">
                <path d="M97,115.9C97,115.547 96.932,115.208 96.798,114.882C96.663,114.556 96.47,114.269 96.221,114.019C95.971,113.77 95.684,113.577 95.358,113.442C95.032,113.308 94.693,113.24 94.34,113.24C93.987,113.24 93.648,113.308 93.322,113.442C92.996,113.577 92.709,113.77 92.459,114.019C92.21,114.269 92.017,114.556 91.882,114.882C91.747,115.208 91.68,115.547 91.68,115.9C91.68,116.253 91.747,116.592 91.882,116.918C92.017,117.244 92.21,117.532 92.459,117.781C92.709,118.03 92.996,118.223 93.322,118.358C93.648,118.493 93.987,118.56 94.34,118.56C94.693,118.56 95.032,118.493 95.358,118.358C95.684,118.223 95.971,118.03 96.221,117.781C96.47,117.532 96.663,117.244 96.798,116.918C96.932,116.592 97,116.253 97,115.9Z" style="fill:rgb(239,157,38);fill-rule:nonzero;"/>
            </g>
            <g transform="matrix(0.913752,0,0,-0.913752,887.388,507.995)">
                <rect x="117.2" y="8.78" width="6.8" height="48.81" style="fill:rgb(200,66,66);"/>
            </g>
            <g transform="matrix(-0.510451,0.75788,-0.75788,-0.510451,1053.88,365.414)">
                <path d="M109.484,2.04L118.274,2.04L116.474,5.579L114.671,9.132L109.484,2.04Z" style="fill:rgb(142,202,239);fill-rule:nonzero;"/>
            </g>
            <g transform="matrix(0.913752,0,0,-0.913752,887.388,659.924)">
                <rect x="109.01" y="114.45" width="7.41" height="3.74" style="fill:rgb(142,202,239);"/>
            </g>
            <g transform="matrix(0.913752,0,0,-0.913752,887.388,636.834)">
                <rect x="109.01" y="92.92" width="7.41" height="21.53" style="fill:rgb(82,167,215);"/>
            </g>
            <g transform="matrix(0.913752,0,0,-0.913752,887.388,600.713)">
                <rect x="109.01" y="74.92" width="7.41" height="18" style="fill:rgb(47,132,185);"/>
            </g>
            <g transform="matrix(0.913752,0,0,-0.913752,887.388,580.62)">
                <rect x="109.01" y="70.93" width="7.41" height="3.99" style="fill:rgb(142,202,239);"/>
            </g>
            <g transform="matrix(0.913752,0,0,-0.913752,887.388,571.382)">
                <path d="M114.62,69.61L116.42,64.81L109.01,64.81L110.82,69.61C111.15,70.49 111.94,70.93 112.72,70.93C113.5,70.93 114.29,70.49 114.62,69.61Z" style="fill:rgb(82,167,215);fill-rule:nonzero;"/>
            </g>
            <g transform="matrix(0.913752,0,0,-0.913752,887.388,668.605)">
                <path d="M114.83,123.95L114.83,120.3C114.83,119.13 113.88,118.19 112.72,118.19C112.14,118.19 111.61,118.42 111.23,118.81C110.84,119.19 110.61,119.72 110.61,120.3L110.61,123.95L114.83,123.95Z" style="fill:rgb(47,132,185);fill-rule:nonzero;"/>
            </g>
            <g transform="matrix(0.913752,0,0,-0.913752,887.388,620.167)">
                <path d="M102,118.56L102,70.58C102,67.97 99.89,65.86 97.29,65.86L72.74,65.86C70.14,65.86 68.03,67.97 68.03,70.58L68.03,118.56C68.03,121.16 70.14,123.27 72.74,123.27L97.29,123.27C99.89,123.27 102,121.16 102,118.56ZM97,109.68L97,117.09L73.03,117.09L73.03,109.68L97,109.68ZM97,100.93C97,102.4 95.81,103.59 94.34,103.59C92.87,103.59 91.68,102.4 91.68,100.93C91.68,99.46 92.87,98.27 94.34,98.27C95.81,98.27 97,99.46 97,100.93ZM97,91.7C97,93.17 95.81,94.36 94.34,94.36C92.87,94.36 91.68,93.17 91.68,91.7C91.68,90.23 92.87,89.04 94.34,89.04C95.81,89.04 97,90.23 97,91.7ZM97,82.46C97,83.93 95.81,85.13 94.34,85.13C92.87,85.13 91.68,83.93 91.68,82.46C91.68,81 92.87,79.8 94.34,79.8C95.81,79.8 97,81 97,82.46ZM97,73.23C97,74.7 95.81,75.89 94.34,75.89C92.87,75.89 91.68,74.7 91.68,73.23C91.68,71.76 92.87,70.57 94.34,70.57C95.81,70.57 97,71.76 97,73.23ZM87.68,100.93C87.68,102.4 86.48,103.59 85.01,103.59C83.54,103.59 82.35,102.4 82.35,100.93C82.35,99.46 83.54,98.27 85.01,98.27C86.48,98.27 87.68,99.46 87.68,100.93ZM87.68,91.7C87.68,93.17 86.48,94.36 85.01,94.36C83.54,94.36 82.35,93.17 82.35,91.7C82.35,90.23 83.54,89.04 85.01,89.04C86.48,89.04 87.68,90.23 87.68,91.7ZM87.68,82.46C87.68,83.93 86.48,85.13 85.01,85.13C83.54,85.13 82.35,83.93 82.35,82.46C82.35,81 83.54,79.8 85.01,79.8C86.48,79.8 87.68,81 87.68,82.46ZM87.68,73.23C87.68,74.7 86.48,75.89 85.01,75.89C83.54,75.89 82.35,74.7 82.35,73.23C82.35,71.76 83.54,70.57 85.01,70.57C86.48,70.57 87.68,71.76 87.68,73.23ZM78.35,100.93C78.35,102.4 77.16,103.59 75.69,103.59C74.22,103.59 73.03,102.4 73.03,100.93C73.03,99.46 74.22,98.27 75.69,98.27C77.16,98.27 78.35,99.46 78.35,100.93ZM78.35,91.7C78.35,93.17 77.16,94.36 75.69,94.36C74.22,94.36 73.03,93.17 73.03,91.7C73.03,90.23 74.22,89.04 75.69,89.04C77.16,89.04 78.35,90.23 78.35,91.7ZM78.35,82.46C78.35,83.93 77.16,85.13 75.69,85.13C74.22,85.13 73.03,83.93 73.03,82.46C73.03,81 74.22,79.8 75.69,79.8C77.16,79.8 78.35,81 78.35,82.46ZM78.35,73.23C78.35,74.7 77.16,75.89 75.69,75.89C74.22,75.89 73.03,74.7 73.03,73.23C73.03,71.76 74.22,70.57 75.69,70.57C77.16,70.57 78.35,71.76 78.35,73.23Z" style="fill:rgb(77,114,122);fill-rule:nonzero;"/>
            </g>
            <g transform="matrix(0.913752,0,0,-0.913752,887.388,534.905)">
                <rect x="93.62" y="38.23" width="6.79" height="19.36" style="fill:rgb(200,66,66);"/>
            </g>
            <g transform="matrix(0.913752,0,0,-0.913752,887.388,585.773)">
                <rect x="73.03" y="72.04" width="23.97" height="7.41" style="fill:rgb(194,230,249);"/>
            </g>
            <g transform="matrix(0.913752,0,0,-0.913752,887.388,529.276)">
                <rect x="70.03" y="32.07" width="6.8" height="25.52" style="fill:rgb(200,66,66);"/>
            </g>
            <g transform="matrix(0.913752,0,0,-0.913752,887.388,622.78)">
                <path d="M62.91,92.38C63.18,91.95 63.31,91.47 63.31,91C63.31,90.22 62.95,89.48 62.28,89.06C61.2,88.38 59.74,88.78 59.01,89.94L56.79,93.49L56.79,93.5L52,101.17L55.9,103.61L56.79,102.18L56.79,102.17L62.91,92.38Z" style="fill:rgb(77,114,122);fill-rule:nonzero;"/>
            </g>
            <g transform="matrix(0.913752,0,0,-0.913752,887.388,557.337)">
                <path d="M28.46,40.9C33.33,36.27 40.63,34.95 46.87,37.75L52,29.55L56.79,21.88L56.79,16.36L0,16.36L0,92.37L11.73,91.76L11.18,104.01L56.79,104.01L56.79,53.07C56.79,56.11 55.97,59.18 54.24,61.95C49.33,69.8 38.98,72.19 31.13,67.28C30.79,67.07 30.46,66.84 30.14,66.62C27.13,64.43 25.04,61.39 24,58.04C23.14,55.3 23,52.34 23.63,49.47C24.02,47.64 24.74,45.85 25.79,44.17C26.56,42.94 27.46,41.85 28.46,40.9Z" style="fill:rgb(234,235,236);fill-rule:nonzero;"/>
            </g>
            <g transform="matrix(0.913752,0,0,-0.913752,887.388,603.601)">
                <path d="M55.9,82.62L52,80.18L46.87,88.38C47.57,88.69 48.25,89.06 48.91,89.47C49.57,89.88 50.19,90.33 50.77,90.82L55.9,82.62Z" style="fill:rgb(147,178,184);fill-rule:nonzero;"/>
            </g>
            <g transform="matrix(0.913752,0,0,-0.913752,887.388,570.358)">
                <path d="M40.02,80.04C47.05,80.04 52.75,74.34 52.75,67.31C52.75,60.28 47.05,54.58 40.02,54.58C32.99,54.58 27.29,60.28 27.29,67.31C27.29,74.34 32.99,80.04 40.02,80.04ZM44.94,59.63C47.86,61.19 49.39,63.84 49.36,67.31C49.35,68.29 48.65,69.12 47.68,69.27C47.57,69.29 47.46,69.3 47.34,69.3C46.24,69.29 45.35,68.38 45.36,67.28C45.38,65.31 44.64,64 43.06,63.16C42.08,62.64 41.72,61.42 42.24,60.45C42.53,59.89 43.06,59.52 43.68,59.42C44.12,59.35 44.55,59.42 44.94,59.63Z" style="fill:rgb(194,230,249);fill-rule:nonzero;"/>
            </g>
            <g transform="matrix(0.913752,0,0,-0.913752,887.388,575.814)">
                <path d="M49.36,73.28C49.39,69.81 47.86,67.16 44.94,65.6C44.55,65.39 44.12,65.32 43.68,65.39C43.06,65.49 42.53,65.86 42.24,66.42C41.72,67.39 42.08,68.61 43.06,69.13C44.64,69.97 45.38,71.28 45.36,73.25C45.35,74.35 46.24,75.26 47.34,75.27C47.46,75.27 47.57,75.26 47.68,75.24C48.65,75.09 49.35,74.26 49.36,73.28Z" style="fill:rgb(82,167,215);fill-rule:nonzero;"/>
            </g>
            <g transform="matrix(0.913752,0,0,-0.913752,887.388,488.441)">
                <path d="M11.18,28.61L11.73,16.36L0,16.97L11.18,28.61Z" style="fill:rgb(156,157,156);fill-rule:nonzero;"/>
            </g>
            <g transform="matrix(0.913752,0,0,-0.913752,887.388,495.211)">
                <path d="M52,25.19L33.04,25.19C32.488,25.19 32.04,25.638 32.04,26.19C32.04,26.742 32.488,27.19 33.04,27.19L52,27.19C52.552,27.19 53,26.742 53,26.19C53,25.638 52.552,25.19 52,25.19Z" style="fill:rgb(156,157,156);fill-rule:nonzero;"/>
            </g>
            <g transform="matrix(0.913752,0,0,-0.913752,887.388,514.254)">
                <path d="M49,35.61L8.99,35.61C8.438,35.61 7.99,36.058 7.99,36.61C7.99,37.162 8.438,37.61 8.99,37.61L49,37.61C49.552,37.61 50,37.162 50,36.61C50,36.058 49.552,35.61 49,35.61Z" style="fill:rgb(156,157,156);fill-rule:nonzero;"/>
            </g>
            <g transform="matrix(0.913752,0,0,-0.913752,887.388,529.916)">
                <path d="M49,44.18L8.99,44.18C8.438,44.18 7.99,44.628 7.99,45.18C7.99,45.732 8.438,46.18 8.99,46.18L49,46.18C49.552,46.18 50,45.732 50,45.18C50,44.628 49.552,44.18 49,44.18Z" style="fill:rgb(156,157,156);fill-rule:nonzero;"/>
            </g>
            <g transform="matrix(0.913752,0,0,-0.913752,887.388,545.577)">
                <path d="M30.14,52.75L8.99,52.75C8.438,52.75 7.99,53.198 7.99,53.75C7.99,54.302 8.438,54.75 8.99,54.75L30.14,54.75C30.692,54.75 31.14,54.302 31.14,53.75C31.14,53.198 30.692,52.75 30.14,52.75Z" style="fill:rgb(156,157,156);fill-rule:nonzero;"/>
            </g>
            <g transform="matrix(0.913752,0,0,-0.913752,887.388,561.257)">
                <path d="M24,61.33L8.99,61.33C8.438,61.33 7.99,61.778 7.99,62.33C7.99,62.882 8.438,63.33 8.99,63.33L24,63.33C24.552,63.33 25,62.882 25,62.33C25,61.778 24.552,61.33 24,61.33Z" style="fill:rgb(156,157,156);fill-rule:nonzero;"/>
            </g>
            <g transform="matrix(0.913752,0,0,-0.913752,887.388,576.919)">
                <path d="M23.63,69.9L8.99,69.9C8.438,69.9 7.99,70.348 7.99,70.9C7.99,71.452 8.438,71.9 8.99,71.9L23.63,71.9C24.182,71.9 24.63,71.452 24.63,70.9C24.63,70.348 24.182,69.9 23.63,69.9Z" style="fill:rgb(156,157,156);fill-rule:nonzero;"/>
            </g>
            <g transform="matrix(0.913752,0,0,-0.913752,887.388,592.581)">
                <path d="M28.46,78.47L8.99,78.47C8.438,78.47 7.99,78.918 7.99,79.47C7.99,80.022 8.438,80.47 8.99,80.47L28.46,80.47C29.012,80.47 29.46,80.022 29.46,79.47C29.46,78.918 29.012,78.47 28.46,78.47Z" style="fill:rgb(156,157,156);fill-rule:nonzero;"/>
            </g>
            <g transform="matrix(0.913752,0,0,-0.913752,887.388,562.034)">
                <path d="M112.72,59.7C112.168,59.7 111.72,60.148 111.72,60.7L111.72,64.81C111.72,65.362 112.168,65.81 112.72,65.81C113.272,65.81 113.72,65.362 113.72,64.81L113.72,60.7C113.72,60.148 113.272,59.7 112.72,59.7Z" style="fill:rgb(82,167,215);fill-rule:nonzero;"/>
            </g>
            <g transform="matrix(0.913752,0,0,-0.913752,887.388,648.018)">
                <path d="M117.1,100.42L116.42,100.42C115.868,100.42 115.42,100.868 115.42,101.42C115.42,101.972 115.868,102.42 116.42,102.42L117.1,102.42C118.137,102.42 118.98,103.259 118.98,104.29L118.98,118.19C118.98,118.742 119.428,119.19 119.98,119.19C120.532,119.19 120.98,118.742 120.98,118.19L120.98,104.29C120.98,102.156 119.239,100.42 117.1,100.42Z" style="fill:rgb(194,230,249);fill-rule:nonzero;"/>
            </g>
            <g transform="matrix(0.913752,0,0,-0.913752,887.388,471.982)">
                <path d="M63.981,2.678C63.631,2.678 63.292,2.862 63.108,3.188C62.837,3.67 63.009,4.279 63.49,4.55L87.73,18.16C88.676,18.694 89.772,18.816 90.817,18.5C91.868,18.184 92.721,17.471 93.22,16.492C93.556,15.82 94.229,15.408 94.979,15.408C95.307,15.408 95.612,15.481 95.886,15.624L112.048,24.025C112.539,24.28 113.142,24.088 113.397,23.599C113.652,23.109 113.461,22.505 112.971,22.25L96.811,13.85C96.25,13.558 95.634,13.408 94.98,13.408C93.467,13.408 92.109,14.244 91.436,15.591C91.191,16.072 90.765,16.428 90.241,16.586C89.722,16.742 89.18,16.682 88.712,16.418L64.47,2.806C64.315,2.719 64.146,2.678 63.981,2.678Z" style="fill:rgb(142,202,239);fill-rule:nonzero;"/>
            </g>
            <g transform="matrix(0.913752,0,0,-0.913752,887.388,569.426)">
                <path d="M54.24,75.18C55.97,72.41 56.79,69.34 56.79,66.3C56.79,61.43 54.68,56.67 50.77,53.42C50.19,52.93 49.57,52.48 48.91,52.07C48.25,51.66 47.57,51.29 46.87,50.98C40.63,48.18 33.33,49.5 28.46,54.13C27.46,55.08 26.56,56.17 25.79,57.4C24.74,59.08 24.02,60.87 23.63,62.7C23,65.57 23.14,68.53 24,71.27C25.04,74.62 27.13,77.66 30.14,79.85C30.46,80.07 30.79,80.3 31.13,80.51C38.98,85.42 49.33,83.03 54.24,75.18ZM52.75,66.29C52.75,73.32 47.05,79.02 40.02,79.02C32.99,79.02 27.29,73.32 27.29,66.29C27.29,59.26 32.99,53.56 40.02,53.56C47.05,53.56 52.75,59.26 52.75,66.29Z" style="fill:rgb(77,114,122);fill-rule:nonzero;"/>
            </g>
        </g>
    </g>
</svg>
