<?xml version="1.0" encoding="UTF-8" standalone="no"?>
<!DOCTYPE svg PUBLIC "-//W3C//DTD SVG 1.1//EN" "http://www.w3.org/Graphics/SVG/1.1/DTD/svg11.dtd">
<svg width="100%" height="100%" viewBox="0 0 218 142" version="1.1" xmlns="http://www.w3.org/2000/svg" xmlns:xlink="http://www.w3.org/1999/xlink" xml:space="preserve" xmlns:serif="http://www.serif.com/" style="fill-rule:evenodd;clip-rule:evenodd;stroke-linejoin:round;stroke-miterlimit:2;">
    <g transform="matrix(1,0,0,1,-2026.77,-2111.9)">
        <g transform="matrix(4.16667,0,0,4.16667,0,0)">
            <g transform="matrix(1.18129,0,0,-1.17754,484.224,541.763)">
                <path d="M37.554,28.173L24.066,14.685C24.003,14.622 23.939,14.622 23.876,14.686L10.447,28.162C9.978,28.636 9.435,29.001 8.819,29.257C8.203,29.514 7.561,29.641 6.894,29.64L6.889,29.64C6.392,29.64 5.906,29.568 5.431,29.424C4.956,29.28 4.512,29.07 4.099,28.794C3.686,28.519 3.322,28.189 3.007,27.805C2.691,27.422 2.439,27.001 2.248,26.542C2.058,26.084 1.938,25.607 1.889,25.113C1.839,24.619 1.863,24.128 1.959,23.641C2.055,23.154 2.22,22.691 2.453,22.253C2.687,21.815 2.979,21.42 3.329,21.068L17.574,6.772L23.327,1.08C23.421,0.987 23.529,0.915 23.651,0.865C23.774,0.815 23.901,0.79 24.033,0.791C24.165,0.791 24.292,0.817 24.414,0.867C24.536,0.918 24.644,0.99 24.737,1.084L44.671,21.068C44.904,21.302 45.111,21.556 45.294,21.831C45.477,22.105 45.631,22.395 45.757,22.7C45.882,23.005 45.977,23.319 46.041,23.643C46.105,23.967 46.136,24.294 46.136,24.623C46.135,24.953 46.103,25.28 46.038,25.603C45.973,25.927 45.877,26.241 45.751,26.546C45.624,26.85 45.469,27.139 45.286,27.414C45.102,27.688 44.893,27.941 44.66,28.174C44.426,28.407 44.173,28.615 43.898,28.798C43.624,28.982 43.334,29.136 43.029,29.262C42.724,29.388 42.41,29.483 42.087,29.548C41.763,29.612 41.436,29.644 41.106,29.644C40.777,29.644 40.45,29.612 40.126,29.547C39.803,29.483 39.489,29.387 39.184,29.261C38.879,29.135 38.59,28.98 38.315,28.797C38.041,28.614 37.787,28.406 37.554,28.173L37.554,28.173ZM43.255,22.48L24.026,3.201L18.985,8.189L4.745,22.48C4.534,22.692 4.359,22.93 4.218,23.194C4.078,23.458 3.979,23.736 3.921,24.029C3.863,24.323 3.849,24.618 3.878,24.915C3.908,25.213 3.98,25.499 4.095,25.775C4.21,26.052 4.362,26.305 4.552,26.536C4.742,26.767 4.961,26.965 5.209,27.131C5.458,27.297 5.725,27.424 6.011,27.51C6.297,27.597 6.59,27.64 6.889,27.64L6.892,27.64C7.729,27.641 8.442,27.344 9.031,26.75L22.459,13.275C22.88,12.866 23.384,12.656 23.972,12.646C24.562,12.644 25.065,12.853 25.48,13.271L38.968,26.758C39.252,27.042 39.579,27.261 39.95,27.414C40.32,27.568 40.706,27.645 41.107,27.645C41.509,27.645 41.895,27.569 42.266,27.415C42.636,27.262 42.964,27.044 43.248,26.76C43.532,26.477 43.751,26.15 43.905,25.779C44.059,25.409 44.136,25.023 44.137,24.622C44.138,24.22 44.062,23.834 43.909,23.463C43.756,23.092 43.538,22.765 43.255,22.48Z" style="fill:white;fill-rule:nonzero;"/>
            </g>
        </g>
    </g>
</svg>