<?xml version="1.0" encoding="UTF-8" standalone="no"?>
<!DOCTYPE svg PUBLIC "-//W3C//DTD SVG 1.1//EN" "http://www.w3.org/Graphics/SVG/1.1/DTD/svg11.dtd">
<svg width="100%" height="100%" viewBox="0 0 59 59" version="1.1" xmlns="http://www.w3.org/2000/svg" xmlns:xlink="http://www.w3.org/1999/xlink" xml:space="preserve" xmlns:serif="http://www.serif.com/" style="fill-rule:evenodd;clip-rule:evenodd;stroke-linejoin:round;stroke-miterlimit:2;">
    <g transform="matrix(1.00956,0,0,1.00956,-5.21111,-3.56203)">
        <circle cx="34.027" cy="32.393" r="28.865" style="fill:rgb(242,242,242);"/>
    </g>
    <g>
        <path d="M24.941,23.341C19.775,26.324 27.657,41.101 33.311,37.837C34.314,39.576 37.548,45.177 38.552,46.916C36.167,48.293 34.148,49.161 31.383,47.58C23.705,43.191 15.254,28.558 15.494,19.83C15.577,16.799 17.363,15.611 19.699,14.262C20.703,16.001 23.937,21.602 24.941,23.341L24.941,23.341L24.941,23.341Z" style="fill-rule:nonzero;"/>
        <path d="M27.108,23.095C26.55,23.417 25.832,23.225 25.509,22.667L20.568,14.108C20.245,13.55 20.438,12.831 20.996,12.509L23.593,11.01C24.151,10.687 24.87,10.88 25.192,11.438L30.133,19.997C30.456,20.555 30.263,21.273 29.705,21.596L27.108,23.095L27.108,23.095Z" style="fill-rule:nonzero;"/>
        <path d="M40.607,46.477C40.049,46.799 39.331,46.607 39.008,46.049L34.067,37.49C33.744,36.932 33.937,36.213 34.495,35.891L37.092,34.392C37.65,34.069 38.369,34.262 38.691,34.82L43.633,43.379C43.955,43.937 43.762,44.655 43.204,44.978L40.607,46.477L40.607,46.477Z" style="fill-rule:nonzero;"/>
    </g>
</svg>
