<?xml version="1.0" encoding="UTF-8" standalone="no"?>
<!DOCTYPE svg PUBLIC "-//W3C//DTD SVG 1.1//EN" "http://www.w3.org/Graphics/SVG/1.1/DTD/svg11.dtd">
<svg width="100%" height="100%" viewBox="0 0 854 957" version="1.1" xmlns="http://www.w3.org/2000/svg" xmlns:xlink="http://www.w3.org/1999/xlink" xml:space="preserve" xmlns:serif="http://www.serif.com/" style="fill-rule:evenodd;clip-rule:evenodd;stroke-linejoin:round;stroke-miterlimit:2;">
    <g transform="matrix(1,0,0,1,-7978.58,-3901.68)">
        <g transform="matrix(4.16667,0,0,4.16667,4802.34,2700)">
            <clipPath id="_clip1">
                <rect x="762.425" y="288.14" width="204.85" height="230.362"/>
            </clipPath>
            <g clip-path="url(#_clip1)">
                <g transform="matrix(2.58323,0,0,-2.58283,735.56,377.638)">
                    <path d="M24.846,5.557C32.839,5.557 39.342,12.06 39.342,20.053C39.342,28.046 32.839,34.549 24.846,34.549C16.853,34.549 10.35,28.046 10.35,20.053C10.35,12.06 16.853,5.557 24.846,5.557ZM24.846,30.549C30.633,30.549 35.342,25.841 35.342,20.053C35.342,14.266 30.634,9.557 24.846,9.557C19.058,9.557 14.35,14.265 14.35,20.053C14.35,25.84 19.059,30.549 24.846,30.549Z" style="fill:rgb(255,189,31);fill-rule:nonzero;"/>
                </g>
                <g transform="matrix(2.58323,0,0,-2.58283,735.56,637.339)">
                    <path d="M77.21,82.767C70.351,82.767 64.77,77.186 64.77,70.327C64.77,63.468 70.351,57.888 77.21,57.888C84.069,57.888 89.65,63.468 89.65,70.327C89.65,77.186 84.069,82.767 77.21,82.767ZM77.21,61.887C72.556,61.887 68.77,65.673 68.77,70.326C68.77,74.98 72.556,78.766 77.21,78.766C81.864,78.766 85.65,74.98 85.65,70.326C85.65,65.674 81.864,61.887 77.21,61.887Z" style="fill:rgb(255,189,31);fill-rule:nonzero;"/>
                </g>
                <g transform="matrix(2.58323,0,0,-2.58283,735.56,374.218)">
                    <path d="M62.929,12.682C66.628,12.682 69.638,15.692 69.638,19.391C69.638,23.09 66.628,26.1 62.929,26.1C59.23,26.1 56.22,23.09 56.22,19.391C56.22,15.692 59.229,12.682 62.929,12.682ZM62.929,22.1C64.423,22.1 65.638,20.885 65.638,19.391C65.638,17.897 64.423,16.682 62.929,16.682C61.435,16.682 60.22,17.897 60.22,19.391C60.22,20.885 61.435,22.1 62.929,22.1Z" style="fill:rgb(20,196,237);fill-rule:nonzero;"/>
                </g>
                <g transform="matrix(2.58323,0,0,-2.58283,735.56,559.095)">
                    <path d="M27.895,55.181C27.895,58.88 24.885,61.889 21.186,61.889C17.487,61.889 14.477,58.88 14.477,55.181C14.477,51.482 17.487,48.472 21.186,48.472C24.885,48.472 27.895,51.482 27.895,55.181ZM18.477,55.181C18.477,56.674 19.692,57.89 21.186,57.89C22.68,57.89 23.895,56.674 23.895,55.181C23.895,53.687 22.68,52.472 21.186,52.472C19.692,52.472 18.477,53.687 18.477,55.181Z" style="fill:rgb(20,196,237);fill-rule:nonzero;"/>
                </g>
                <g transform="matrix(2.58323,0,0,-2.58283,735.56,727.255)">
                    <path d="M24.846,94.443C21.147,94.443 18.137,91.433 18.137,87.734C18.137,84.035 21.147,81.025 24.846,81.025C28.545,81.025 31.555,84.035 31.555,87.734C31.555,91.433 28.545,94.443 24.846,94.443ZM24.846,85.025C23.352,85.025 22.137,86.24 22.137,87.734C22.137,89.228 23.352,90.443 24.846,90.443C26.34,90.443 27.555,89.228 27.555,87.734C27.555,86.24 26.34,85.025 24.846,85.025Z" style="fill:rgb(20,196,237);fill-rule:nonzero;"/>
                </g>
                <g transform="matrix(2.58323,0,0,-2.58283,735.56,553.144)">
                    <path d="M66.665,46.893C67.37,47.744 67.251,49.004 66.4,49.708L60.326,54.738C60.917,55.941 61.258,57.288 61.258,58.716C61.258,61.953 59.547,64.79 56.988,66.394L61.152,78.725C61.506,79.771 60.944,80.906 59.897,81.26C58.849,81.613 57.715,81.052 57.363,80.005L53.214,67.718C52.879,67.756 52.54,67.779 52.195,67.779C50.488,67.779 48.895,67.296 47.53,66.472L39.912,75.819C39.213,76.675 37.954,76.804 37.098,76.106C36.242,75.408 36.114,74.148 36.811,73.292L44.63,63.697C43.764,62.387 43.238,60.84 43.154,59.176L30.637,56.415C29.558,56.177 28.877,55.109 29.115,54.031C29.321,53.097 30.148,52.462 31.066,52.462C31.209,52.462 31.354,52.477 31.499,52.509L43.831,55.229C44.382,53.913 45.237,52.757 46.305,51.841L29.475,29.653C28.807,28.773 28.979,27.518 29.86,26.85C30.221,26.577 30.646,26.444 31.067,26.444C31.671,26.444 32.269,26.716 32.662,27.235L49.898,49.958C50.633,49.765 51.4,49.652 52.195,49.652C54.32,49.652 56.272,50.392 57.819,51.621L63.85,46.627C64.223,46.317 64.675,46.167 65.124,46.167C65.699,46.168 66.27,46.415 66.665,46.893ZM52.195,53.653C49.403,53.653 47.132,55.924 47.132,58.716C47.132,61.508 49.403,63.779 52.195,63.779C54.986,63.779 57.258,61.508 57.258,58.716C57.258,55.924 54.986,53.653 52.195,53.653Z" style="fill:rgb(228,233,234);fill-rule:nonzero;"/>
                </g>
            </g>
        </g>
    </g>
</svg>
