<?xml version="1.0" encoding="UTF-8" standalone="no"?>
<!DOCTYPE svg PUBLIC "-//W3C//DTD SVG 1.1//EN" "http://www.w3.org/Graphics/SVG/1.1/DTD/svg11.dtd">
<svg width="100%" height="100%" viewBox="0 0 162 154" version="1.1" xmlns="http://www.w3.org/2000/svg" xmlns:xlink="http://www.w3.org/1999/xlink" xml:space="preserve" xmlns:serif="http://www.serif.com/" style="fill-rule:evenodd;clip-rule:evenodd;stroke-linejoin:round;stroke-miterlimit:2;">
    <g transform="matrix(1,0,0,1,-5596.26,-4020.56)">
        <g transform="matrix(4.16667,0,0,4.16667,4802.34,2700)">
            <g transform="matrix(0.151291,0,0,-0.147291,190.539,353.861)">
                <path d="M128,250.7C57.317,250.7 0,193.393 0,122.7C0,66.14 36.676,18.16 87.535,1.24C93.932,0.05 96.281,4.02 96.281,7.4C96.281,10.45 96.162,20.53 96.107,31.23C60.497,23.48 52.983,46.33 52.983,46.33C47.16,61.13 38.77,65.06 38.77,65.06C27.157,73 39.646,72.84 39.646,72.84C52.499,71.94 59.267,59.65 59.267,59.65C70.684,40.08 89.212,45.74 96.516,49.01C97.665,57.28 100.98,62.93 104.64,66.13C76.212,69.36 46.325,80.34 46.325,129.38C46.325,143.36 51.325,154.778 59.513,163.742C58.184,166.966 53.803,179.984 60.753,197.616C60.753,197.616 71.502,201.056 95.963,184.495C106.17,187.331 117.12,188.753 128,188.802C138.88,188.753 149.84,187.331 160.07,184.495C184.5,201.056 195.23,197.616 195.23,197.616C202.2,179.984 197.82,166.966 196.49,163.742C204.69,154.778 209.66,143.36 209.66,129.38C209.66,80.22 179.72,69.4 151.21,66.23C155.8,62.26 159.9,54.47 159.9,42.52C159.9,25.4 159.75,11.61 159.75,7.4C159.75,3.99 162.05,-0 168.54,1.26C219.37,18.2 256,66.16 256,122.7C256,193.393 198.69,250.7 128,250.7L128,250.7ZM47.941,68.36C47.659,67.72 46.658,67.53 45.747,67.97C44.818,68.39 44.297,69.25 44.598,69.89C44.873,70.55 45.876,70.73 46.802,70.29C47.733,69.87 48.263,69 47.941,68.36ZM54.237,62.74C53.626,62.18 52.433,62.44 51.623,63.33C50.786,64.23 50.629,65.42 51.248,65.99C51.878,66.56 53.035,66.29 53.874,65.4C54.712,64.5 54.875,63.31 54.237,62.74ZM58.556,55.55C57.772,55.01 56.49,55.52 55.697,56.66C54.913,57.8 54.913,59.16 55.714,59.71C56.509,60.26 57.772,59.76 58.575,58.63C59.357,57.48 59.357,56.11 58.556,55.55L58.556,55.55ZM65.861,47.23C65.16,46.46 63.665,46.66 62.572,47.72C61.452,48.75 61.141,50.22 61.845,50.99C62.555,51.76 64.058,51.55 65.16,50.5C66.27,49.47 66.61,47.99 65.861,47.23L65.861,47.23ZM75.303,44.42C74.993,43.42 73.554,42.96 72.104,43.39C70.656,43.82 69.709,45 70.001,46.01C70.302,47.02 71.748,47.5 73.208,47.04C74.654,46.6 75.604,45.44 75.303,44.42L75.303,44.42ZM86.047,43.23C86.083,42.17 84.854,41.3 83.332,41.28C81.801,41.24 80.563,42.1 80.546,43.14C80.546,44.2 81.748,45.07 83.279,45.09C84.801,45.12 86.047,44.28 86.047,43.23ZM96.602,43.63C96.784,42.6 95.727,41.54 94.215,41.26C92.73,40.99 91.354,41.63 91.165,42.65C90.981,43.7 92.058,44.76 93.541,45.03C95.055,45.3 96.409,44.68 96.602,43.63L96.602,43.63Z" style="fill:white;fill-rule:nonzero;"/>
            </g>
        </g>
    </g>
</svg>
