<?xml version="1.0" encoding="UTF-8" standalone="no"?>
<!DOCTYPE svg PUBLIC "-//W3C//DTD SVG 1.1//EN" "http://www.w3.org/Graphics/SVG/1.1/DTD/svg11.dtd">
<svg width="100%" height="100%" viewBox="0 0 162 162" version="1.1" xmlns="http://www.w3.org/2000/svg" xmlns:xlink="http://www.w3.org/1999/xlink" xml:space="preserve" xmlns:serif="http://www.serif.com/" style="fill-rule:evenodd;clip-rule:evenodd;stroke-linejoin:round;stroke-miterlimit:2;">
    <g transform="matrix(1,0,0,1,-5596.26,-3621.56)">
        <g transform="matrix(4.16667,0,0,4.16667,4802.34,2700)">
            <g transform="matrix(0,0.164114,0.164114,0,188.242,218.564)">
                <clipPath id="_clip1">
                    <path d="M133.903,13.998C199.073,13.998 251.903,66.828 251.903,131.998C251.903,197.168 199.073,249.998 133.903,249.998C68.733,249.998 15.903,197.168 15.903,131.998C15.903,66.828 68.733,13.998 133.903,13.998Z" clip-rule="nonzero"/>
                </clipPath>
                <g clip-path="url(#_clip1)">
                    <path d="M133.903,13.998C199.073,13.998 251.903,66.828 251.903,131.998C251.903,197.168 199.073,249.998 133.903,249.998C68.733,249.998 15.903,197.168 15.903,131.998C15.903,66.828 68.733,13.998 133.903,13.998" style="fill:url(#_Linear2);fill-rule:nonzero;"/>
                </g>
            </g>
        </g>
        <g transform="matrix(4.16667,0,0,4.16667,4802.34,2700)">
            <g transform="matrix(0.164114,0,0,0.164114,187.929,221.03)">
                <path d="M95.778,127.501L109.778,166.251C109.778,166.251 111.528,169.875 113.403,169.875C115.278,169.875 143.153,140.875 143.153,140.875L174.153,81L96.278,117.5L95.778,127.501Z" style="fill:rgb(200,218,234);fill-rule:nonzero;"/>
            </g>
        </g>
        <g transform="matrix(4.16667,0,0,4.16667,4802.34,2700)">
            <g transform="matrix(0.164114,0,0,0.164114,187.929,231.093)">
                <path d="M114.34,76.124L111.652,104.686C111.652,104.686 110.527,113.436 119.277,104.686C128.027,95.936 136.402,89.186 136.402,89.186" style="fill:rgb(169,198,216);fill-rule:nonzero;"/>
            </g>
        </g>
        <g transform="matrix(4.16667,0,0,4.16667,4802.34,2700)">
            <g transform="matrix(0.164114,0,0,0.164114,187.929,219.232)">
                <path d="M96.03,139.842L67.235,130.459C67.235,130.459 63.798,129.064 64.902,125.897C65.13,125.244 65.589,124.689 66.964,123.73C73.346,119.283 185.068,79.126 185.068,79.126C185.068,79.126 188.223,78.064 190.088,78.77C190.94,79.093 191.484,79.458 191.942,80.79C192.109,81.275 192.205,82.306 192.192,83.332C192.182,84.072 192.092,84.757 192.026,85.832C191.346,96.812 170.986,178.75 170.986,178.75C170.986,178.75 169.768,183.545 165.403,183.708C163.811,183.768 161.879,183.445 159.569,181.458C151.004,174.09 121.397,154.193 114.856,149.818C114.486,149.572 114.382,149.251 114.319,148.938C114.227,148.478 114.719,147.904 114.719,147.904C114.719,147.904 166.271,102.079 167.643,97.271C167.749,96.898 167.35,96.714 166.809,96.875C163.385,98.135 104.029,135.615 97.479,139.755C97.096,139.997 96.022,139.841 96.022,139.841" style="fill:white;fill-rule:nonzero;"/>
            </g>
        </g>
    </g>
    <defs>
        <linearGradient id="_Linear2" x1="0" y1="0" x2="1" y2="0" gradientUnits="userSpaceOnUse" gradientTransform="matrix(-236,1.44508e-14,-1.44508e-14,-236,251.902,131.998)"><stop offset="0" style="stop-color:rgb(29,147,210);stop-opacity:1"/><stop offset="1" style="stop-color:rgb(56,176,227);stop-opacity:1"/></linearGradient>
    </defs>
</svg>
