<?xml version="1.0" encoding="UTF-8" standalone="no"?>
<!DOCTYPE svg PUBLIC "-//W3C//DTD SVG 1.1//EN" "http://www.w3.org/Graphics/SVG/1.1/DTD/svg11.dtd">
<svg width="100%" height="100%" viewBox="0 0 162 162" version="1.1" xmlns="http://www.w3.org/2000/svg" xmlns:xlink="http://www.w3.org/1999/xlink" xml:space="preserve" xmlns:serif="http://www.serif.com/" style="fill-rule:evenodd;clip-rule:evenodd;stroke-linejoin:round;stroke-miterlimit:2;">
    <g transform="matrix(1,0,0,1,-5596.26,-3821.34)">
        <g transform="matrix(4.16667,0,0,4.16667,4802.34,2700)">
            <g transform="matrix(0.096826,0,0,-0.096826,190.539,307.852)">
                <path d="M400,200C400,193.45 399.679,186.915 399.037,180.397C398.395,173.878 397.435,167.406 396.157,160.982C394.879,154.558 393.29,148.211 391.388,141.943C389.487,135.675 387.283,129.515 384.776,123.463C382.269,117.412 379.472,111.497 376.384,105.721C373.296,99.944 369.933,94.332 366.294,88.886C362.655,83.44 358.758,78.185 354.602,73.121C350.447,68.058 346.053,63.21 341.421,58.579C336.79,53.947 331.942,49.553 326.879,45.398C321.815,41.242 316.56,37.345 311.114,33.706C305.668,30.067 300.056,26.704 294.279,23.616C288.503,20.528 282.588,17.731 276.537,15.224C270.485,12.717 264.325,10.513 258.057,8.612C251.789,6.711 245.442,5.121 239.018,3.843C232.594,2.565 226.122,1.605 219.603,0.963C213.085,0.321 206.55,0 200,0C193.45,0 186.915,0.321 180.397,0.963C173.878,1.605 167.406,2.565 160.982,3.843C154.558,5.121 148.211,6.71 141.943,8.612C135.675,10.513 129.515,12.717 123.463,15.224C117.412,17.731 111.497,20.528 105.721,23.616C99.944,26.704 94.332,30.067 88.886,33.706C83.44,37.345 78.185,41.242 73.121,45.398C68.058,49.553 63.21,53.947 58.579,58.579C53.947,63.21 49.553,68.058 45.398,73.121C41.242,78.185 37.345,83.44 33.706,88.886C30.067,94.332 26.704,99.944 23.616,105.721C20.528,111.497 17.731,117.412 15.224,123.463C12.717,129.515 10.513,135.675 8.612,141.943C6.71,148.211 5.121,154.558 3.843,160.982C2.565,167.406 1.605,173.878 0.963,180.397C0.321,186.915 0,193.45 0,200C0,206.55 0.321,213.085 0.963,219.603C1.605,226.122 2.565,232.594 3.843,239.018C5.121,245.442 6.71,251.789 8.612,258.057C10.513,264.325 12.717,270.485 15.224,276.537C17.731,282.588 20.528,288.503 23.616,294.279C26.704,300.056 30.067,305.668 33.706,311.114C37.345,316.56 41.242,321.815 45.398,326.879C49.553,331.942 53.947,336.79 58.579,341.421C63.21,346.053 68.058,350.447 73.121,354.602C78.185,358.758 83.44,362.655 88.886,366.294C94.332,369.933 99.944,373.296 105.721,376.384C111.497,379.472 117.412,382.269 123.463,384.776C129.515,387.283 135.675,389.487 141.943,391.388C148.211,393.29 154.558,394.879 160.982,396.157C167.406,397.435 173.878,398.395 180.397,399.037C186.915,399.679 193.45,400 200,400C206.55,400 213.085,399.679 219.603,399.037C226.122,398.395 232.594,397.435 239.018,396.157C245.442,394.879 251.789,393.29 258.057,391.388C264.325,389.487 270.485,387.283 276.537,384.776C282.588,382.269 288.503,379.472 294.279,376.384C300.056,373.296 305.668,369.933 311.114,366.294C316.56,362.655 321.815,358.758 326.879,354.602C331.942,350.447 336.79,346.053 341.421,341.421C346.053,336.79 350.447,331.942 354.602,326.879C358.758,321.815 362.655,316.56 366.294,311.114C369.933,305.668 373.296,300.056 376.384,294.279C379.472,288.503 382.269,282.588 384.776,276.537C387.283,270.485 389.487,264.325 391.388,258.057C393.289,251.789 394.879,245.442 396.157,239.018C397.435,232.594 398.395,226.122 399.037,219.603C399.679,213.085 400,206.55 400,200Z" style="fill:rgb(27,157,240);fill-rule:nonzero;"/>
            </g>
        </g>
        <g transform="matrix(4.16667,0,0,4.16667,4802.34,2700)">
            <g transform="matrix(0.096826,0,0,-0.096826,190.539,309.789)">
                <path d="M163.4,114.5C252.1,114.5 300.6,188 300.6,251.7C300.6,253.8 300.6,255.9 300.5,257.9C309.9,264.7 318.1,273.2 324.6,282.9C316,279.1 306.7,276.5 296.9,275.3C306.9,281.3 314.5,290.7 318.1,302C308.8,296.5 298.5,292.5 287.5,290.3C278.7,299.7 266.2,305.5 252.3,305.5C225.7,305.5 204.1,283.9 204.1,257.3C204.1,253.5 204.5,249.8 205.4,246.3C165.3,248.3 129.8,267.5 106,296.7C101.9,289.6 99.5,281.3 99.5,272.5C99.5,255.8 108,241 121,232.4C113.1,232.6 105.7,234.8 99.2,238.4L99.2,237.8C99.2,214.4 115.8,195 137.9,190.5C133.9,189.4 129.6,188.8 125.2,188.8C122.1,188.8 119.1,189.1 116.1,189.7C122.2,170.5 140,156.6 161.1,156.2C144.6,143.3 123.8,135.6 101.2,135.6C97.3,135.6 93.5,135.8 89.7,136.3C110.8,122.5 136.2,114.5 163.4,114.5" style="fill:white;fill-rule:nonzero;"/>
            </g>
        </g>
    </g>
</svg>
