<?xml version="1.0" encoding="UTF-8" standalone="no"?>
<!DOCTYPE svg PUBLIC "-//W3C//DTD SVG 1.1//EN" "http://www.w3.org/Graphics/SVG/1.1/DTD/svg11.dtd">
<svg width="100%" height="100%" viewBox="0 0 453 454" version="1.1" xmlns="http://www.w3.org/2000/svg" xmlns:xlink="http://www.w3.org/1999/xlink" xml:space="preserve" xmlns:serif="http://www.serif.com/" style="fill-rule:evenodd;clip-rule:evenodd;stroke-linejoin:round;stroke-miterlimit:2;">
    <g transform="matrix(1,0,0,1,-10146.3,-1774.83)">
        <g transform="matrix(4.16667,0,0,4.16667,9604.69,0)">
            <g transform="matrix(0.86255,0,0,-0.864918,129.995,573.889)">
                <path d="M115.665,79.982L115.545,46.102L95.605,46.102L96.055,80.562C94.375,81.372 93.315,82.692 92.645,84.012C91.555,86.162 91.515,88.322 91.515,88.322L90.205,113.232C89.805,116.262 93.435,117.082 94.055,114.202L95.635,103.922C95.875,103.262 96.575,103.132 97.055,103.392C97.115,103.422 97.165,103.452 97.205,103.482C98.955,104.452 100.925,105.092 102.815,105.502C102.835,105.502 102.855,105.512 102.885,105.512C105.405,106.052 107.775,106.202 109.285,106.222L109.285,106.232C109.745,106.232 110.205,106.522 110.275,107.112L111.545,120.382C111.865,124.532 116.705,124.932 116.395,121.162L115.435,107.192L114.775,97.622C115.145,95.632 116.745,95.802 116.885,95.822L116.895,95.822C117.165,96.232 117.365,96.722 117.485,97.332C118.095,101.422 118.615,103.382 118.615,103.382C120.005,107.622 126.335,106.382 124.735,102.302C120.425,91.872 124.855,81.892 115.665,79.982Z" style="fill:rgb(254,196,185);fill-rule:nonzero;"/>
            </g>
        </g>
        <g transform="matrix(4.16667,0,0,4.16667,9604.69,0)">
            <g transform="matrix(0.86255,0,0,-0.864918,129.995,493.097)">
                <path d="M117.065,16.332L117.065,16.322C116.555,15.482 116.005,14.632 115.435,13.782L116.395,27.752C116.705,31.522 111.865,31.122 111.545,26.972L110.275,13.702C110.205,13.112 109.745,12.822 109.285,12.822C108.815,12.822 108.345,13.122 108.285,13.732C107.955,17.342 108.545,31.012 108.545,33.242C108.545,34.972 107.475,35.812 106.335,35.812C105.045,35.812 103.655,34.722 103.655,32.632C103.705,30.202 103.865,17.042 103.665,13.002C103.635,12.502 103.285,12.192 102.885,12.102C102.855,12.102 102.835,12.092 102.815,12.092C102.325,12.022 101.795,12.262 101.685,12.862L100.745,27.842C100.345,31.152 96.575,30.532 96.575,27.592C96.575,27.592 97.205,15.692 97.565,10.932C97.595,10.552 97.445,10.262 97.205,10.072C97.165,10.042 97.115,10.012 97.055,9.982C96.575,9.722 95.875,9.852 95.635,10.512L94.055,20.792C93.435,23.672 89.805,22.852 90.205,19.822L91.515,-5.088C91.515,-5.088 91.555,-7.248 92.645,-9.398C91.945,-9.928 91.225,-10.458 90.495,-10.978C87.005,-13.528 83.205,-16.048 79.085,-18.538C77.965,-19.218 76.825,-19.898 75.655,-20.568L75.405,-1.498C81.185,1.232 81.325,8.442 81.325,8.442L83.305,40.672C83.305,46.742 78.525,45.882 78.135,41.972L76.485,26.142C75.645,26.822 74.725,27.422 73.755,27.942C73.835,28.972 73.935,30.832 74.035,33.062C74.065,33.662 74.095,34.292 74.125,34.932L74.125,34.952C74.425,41.612 74.745,50.102 74.745,50.102C74.745,53.862 69.825,54.652 69.305,50.412L68.655,29.952L68.655,29.942C67.595,30.242 66.525,30.482 65.495,30.662L65.495,30.672C65.505,31.852 65.535,33.332 65.595,34.992C65.625,36.372 65.685,37.872 65.735,39.432C65.965,45.612 66.285,52.712 66.375,56.612C66.375,58.342 65.625,59.532 64.635,60.162C65.105,60.822 65.575,61.472 66.055,62.092C93.905,98.192 144.555,61.252 117.065,16.332Z" style="fill:rgb(196,59,88);fill-rule:nonzero;"/>
            </g>
        </g>
        <g transform="matrix(4.16667,0,0,4.16667,9604.69,0)">
            <g transform="matrix(0.86255,0,0,-0.864918,129.995,518.793)">
                <path d="M109.285,42.532L109.285,42.522C107.775,42.502 105.405,42.352 102.885,41.812C103.285,41.902 103.635,42.212 103.665,42.712C103.865,46.752 103.705,59.912 103.655,62.342C103.655,64.432 105.045,65.522 106.335,65.522C107.475,65.522 108.545,64.682 108.545,62.952C108.545,60.722 107.955,47.052 108.285,43.442C108.345,42.832 108.815,42.532 109.285,42.532Z" style="fill:rgb(254,196,185);fill-rule:nonzero;"/>
            </g>
        </g>
        <g transform="matrix(4.16667,0,0,4.16667,9604.69,0)">
            <g transform="matrix(0.86255,0,0,-0.864918,129.995,524.58)">
                <path d="M101.685,49.262C101.795,48.662 102.325,48.422 102.815,48.492C100.925,48.082 98.955,47.442 97.205,46.472C97.445,46.662 97.595,46.952 97.565,47.332C97.205,52.092 96.575,63.992 96.575,63.992C96.575,66.932 100.345,67.552 100.745,64.242L101.685,49.262Z" style="fill:rgb(254,196,185);fill-rule:nonzero;"/>
            </g>
        </g>
        <g transform="matrix(4.16667,0,0,4.16667,9604.69,0)">
            <g transform="matrix(0.86255,0,0,-0.864918,129.995,553.554)">
                <path d="M75.655,49.332L75.995,22.592L49.995,22.592L49.905,49.582L49.845,67.652L49.845,67.662C37.855,70.112 43.645,82.892 38.015,96.252C35.935,101.482 44.185,103.072 45.995,97.642C45.995,97.642 46.675,95.132 47.465,89.892C47.615,89.102 47.885,88.472 48.245,87.952C48.245,87.952 50.495,87.592 50.995,90.262L50.685,120.262C50.685,124.932 56.995,124.302 56.995,119.262L56.995,101.292C57.755,101.292 58.895,101.282 60.295,101.192C61.805,101.102 63.595,100.922 65.495,100.562C66.525,100.382 67.595,100.142 68.655,99.842C70.405,99.352 72.145,98.702 73.755,97.842C74.725,97.322 75.645,96.722 76.485,96.042L78.135,111.872C78.525,115.782 83.305,116.642 83.305,110.572L81.325,78.342C81.325,78.342 81.185,71.132 75.405,68.402L75.655,49.332Z" style="fill:rgb(255,215,210);fill-rule:nonzero;"/>
            </g>
        </g>
        <g transform="matrix(4.16667,0,0,4.16667,9604.69,0)">
            <g transform="matrix(0.86255,0,0,-0.864918,129.995,488.798)">
                <path d="M74.745,45.132C74.745,45.132 74.065,27.142 73.755,22.972C72.145,23.832 70.405,24.482 68.655,24.972L68.655,24.982L69.305,45.442C69.825,49.682 74.745,48.892 74.745,45.132Z" style="fill:rgb(255,215,210);fill-rule:nonzero;"/>
            </g>
        </g>
        <g transform="matrix(4.16667,0,0,4.16667,9604.69,0)">
            <g transform="matrix(0.86255,0,0,-0.864918,129.995,481.221)">
                <path d="M64.635,46.432C65.625,45.802 66.375,44.612 66.375,42.882C66.235,36.812 65.545,22.972 65.495,16.942L65.495,16.932C63.595,17.292 61.805,17.472 60.295,17.562L60.295,17.572C60.115,22.262 60.005,37.402 59.995,43.672C59.995,45.062 60.545,46.002 61.315,46.512C61.775,46.812 62.325,46.962 62.875,46.962C63.475,46.962 64.095,46.782 64.635,46.432Z" style="fill:rgb(255,215,210);fill-rule:nonzero;"/>
            </g>
        </g>
        <g transform="matrix(4.16667,0,0,4.16667,9604.69,0)">
            <g transform="matrix(0.86255,0,0,-0.864918,129.995,494.169)">
                <path d="M59.995,58.642C60.005,52.372 60.115,37.232 60.295,32.542L60.295,32.532C58.895,32.622 57.755,32.632 56.995,32.632L56.995,50.602C56.995,55.642 50.685,56.272 50.685,51.602L50.995,21.602C50.495,18.932 48.245,19.292 48.245,19.292C47.885,19.812 47.615,20.442 47.465,21.232C46.675,26.472 45.995,28.982 45.995,28.982C44.185,34.412 35.935,32.822 38.015,27.592C43.645,14.232 37.855,1.452 49.845,-0.998L49.845,-1.008L49.905,-19.078C48.495,-18.258 47.115,-17.438 45.775,-16.598C41.985,-14.278 38.465,-11.918 35.225,-9.548C34.585,-9.088 33.965,-8.618 33.345,-8.158C34.435,-6.008 34.475,-3.848 34.475,-3.848L35.785,21.062C36.185,24.092 32.555,24.912 31.935,22.032L30.355,11.752C30.115,11.092 29.425,10.962 28.945,11.222C28.885,11.242 28.835,11.272 28.785,11.312C28.545,11.502 28.395,11.792 28.425,12.172C28.785,16.932 29.415,28.832 29.415,28.832C29.415,31.772 25.645,32.392 25.245,29.082L24.305,14.102C24.195,13.502 23.665,13.262 23.175,13.332C23.155,13.332 23.135,13.342 23.105,13.342C22.705,13.432 22.355,13.742 22.325,14.242C22.125,18.282 22.285,31.442 22.335,33.872C22.335,35.962 20.945,37.052 19.655,37.052C18.515,37.052 17.445,36.212 17.445,34.482C17.445,32.252 18.035,18.582 17.705,14.972C17.645,14.362 17.175,14.062 16.705,14.062C16.245,14.062 15.785,14.352 15.715,14.942L14.445,28.212C14.115,32.362 9.285,32.762 9.595,28.992L10.555,15.022C9.095,17.182 7.825,19.332 6.715,21.452C-15.485,64.282 32.245,97.942 59.405,64.032C60.055,63.222 60.685,62.372 61.315,61.482C60.545,60.972 59.995,60.032 59.995,58.642Z" style="fill:rgb(209,75,98);fill-rule:nonzero;"/>
            </g>
        </g>
        <g transform="matrix(4.16667,0,0,4.16667,9604.69,0)">
            <g transform="matrix(0.86255,0,0,-0.864918,129.995,573.889)">
                <path d="M16.705,106.222C18.215,106.202 20.585,106.052 23.105,105.512C23.135,105.512 23.155,105.502 23.175,105.502C25.065,105.092 27.035,104.452 28.785,103.482C28.835,103.442 28.885,103.412 28.945,103.392C29.425,103.132 30.115,103.262 30.355,103.922L31.935,114.202C32.555,117.082 36.185,116.262 35.785,113.232L34.475,88.322C34.475,88.322 34.435,86.162 33.345,84.012C32.675,82.692 31.615,81.372 29.935,80.562L30.385,46.102L10.445,46.102L10.325,79.982C1.135,81.892 5.565,91.872 1.255,102.302C-0.345,106.382 5.985,107.622 7.375,103.382C7.375,103.382 7.895,101.422 8.505,97.332C8.625,96.722 8.825,96.232 9.095,95.822L9.105,95.822C9.245,95.802 10.845,95.632 11.215,97.622L10.555,107.192L9.595,121.162C9.285,124.932 14.115,124.532 14.445,120.382L15.715,107.112C15.785,106.522 16.245,106.232 16.705,106.232L16.705,106.222L16.705,106.222Z" style="fill:rgb(247,182,173);fill-rule:nonzero;"/>
            </g>
        </g>
        <g transform="matrix(4.16667,0,0,4.16667,9604.69,0)">
            <g transform="matrix(0.86255,0,0,-0.864918,129.995,524.58)">
                <path d="M29.415,63.992C29.415,63.992 28.785,52.092 28.425,47.332C28.395,46.952 28.545,46.662 28.785,46.472C27.035,47.442 25.065,48.082 23.175,48.492C23.665,48.422 24.195,48.662 24.305,49.262L25.245,64.242C25.645,67.552 29.415,66.932 29.415,63.992Z" style="fill:rgb(247,182,173);fill-rule:nonzero;"/>
            </g>
        </g>
        <g transform="matrix(4.16667,0,0,4.16667,9604.69,0)">
            <g transform="matrix(0.86255,0,0,-0.864918,129.995,518.793)">
                <path d="M22.325,42.712C22.355,42.212 22.705,41.902 23.105,41.812C20.585,42.352 18.215,42.502 16.705,42.522L16.705,42.532C17.175,42.532 17.645,42.832 17.705,43.442C18.035,47.052 17.445,60.722 17.445,62.952C17.445,64.682 18.515,65.522 19.655,65.522C20.945,65.522 22.335,64.432 22.335,62.342C22.285,59.912 22.125,46.752 22.325,42.712Z" style="fill:rgb(247,182,173);fill-rule:nonzero;"/>
            </g>
        </g>
        <g transform="matrix(4.16667,0,0,4.16667,9604.69,0)">
            <g transform="matrix(0.86255,0,0,-0.864918,129.995,532.027)">
                <path d="M125.24,57.269C124.358,58.332 122.796,58.832 121.263,58.538C119.571,58.216 118.225,57.002 117.648,55.235C117.627,55.153 117.108,53.175 116.506,49.118C116.46,48.879 116.392,48.672 116.313,48.478C116.114,48.578 115.899,48.801 115.786,49.29L116.414,58.469C132.851,83.071 126.034,106.532 110.75,117.027C98.194,125.648 78.411,125.92 64.309,106.43C63.84,106.601 63.355,106.702 62.873,106.702C62.441,106.702 62.03,106.619 61.639,106.488C47.532,125.933 27.76,125.637 15.219,117.011C-0.048,106.512 -6.852,83.055 9.575,58.468L10.203,49.289C10.094,48.811 9.89,48.577 9.671,48.474C9.598,48.658 9.533,48.853 9.49,49.076C8.881,53.176 8.363,55.153 8.324,55.291C7.763,57.002 6.418,58.216 4.726,58.538C3.193,58.829 1.631,58.331 0.749,57.269C-0.078,56.272 -0.228,54.946 0.332,53.517C1.898,49.73 2.273,45.956 2.605,42.627C3.144,37.219 3.628,32.395 9.326,30.803L9.442,-2.301C9.444,-2.852 9.891,-3.297 10.442,-3.297L10.445,-3.297C10.997,-3.295 11.444,-2.846 11.442,-2.293L11.327,30.423C12.149,30.317 13.03,30.247 14.028,30.247C14.388,30.247 14.761,30.255 15.146,30.269C15.698,30.29 16.128,30.754 16.107,31.306C16.086,31.858 15.636,32.296 15.069,32.267C5.686,31.932 5.272,36.019 4.594,42.826C4.249,46.293 3.858,50.222 2.186,54.264C1.902,54.988 1.936,55.57 2.287,55.993C2.703,56.495 3.532,56.73 4.351,56.573C4.927,56.464 5.963,56.07 6.406,54.723C6.411,54.704 6.921,52.753 7.517,48.741C7.94,46.536 9.321,45.62 10.54,44.813C12.056,43.809 13.253,43.015 12.944,39.603C12.894,39.053 13.3,38.567 13.85,38.517C14.397,38.459 14.886,38.873 14.936,39.423C15.353,44.024 13.296,45.386 11.644,46.48C11.402,46.64 11.174,46.793 10.96,46.949C11.522,47.357 12.001,48.015 12.19,49.042C12.205,49.124 12.21,49.208 12.204,49.291L10.592,72.844C10.537,73.507 10.684,73.994 11.007,74.217C11.286,74.41 11.713,74.408 12.119,74.214C12.862,73.86 13.356,72.996 13.442,71.886L14.705,58.734C14.302,58.587 14.018,58.204 14.044,57.753C14.076,57.201 14.557,56.784 15.099,56.812C15.205,56.82 25.875,57.361 30.868,52.279C31.064,52.08 31.323,51.98 31.581,51.98C31.834,51.98 32.087,52.076 32.282,52.267C32.676,52.654 32.682,53.287 32.295,53.681C31.914,54.069 31.505,54.426 31.077,54.758C31.161,54.887 31.237,55.024 31.293,55.177C31.316,55.24 31.333,55.306 31.343,55.372L32.912,65.599C33.06,66.294 33.448,66.662 33.948,66.573C34.445,66.488 34.921,65.946 34.784,64.882L33.473,39.942C33.473,39.903 33.369,36.07 30.76,33.879C29.152,32.529 26.882,32.07 24.016,32.52C23.476,32.602 22.959,32.232 22.874,31.686C22.789,31.14 23.162,30.629 23.707,30.543C24.524,30.416 25.304,30.352 26.047,30.352C27.089,30.352 28.053,30.485 28.944,30.735L29.381,-2.309C29.388,-2.856 29.835,-3.295 30.381,-3.295L30.395,-3.295C30.947,-3.287 31.389,-2.834 31.382,-2.281L30.934,31.572C31.324,31.8 31.697,32.055 32.045,32.348C32.693,32.892 33.215,33.508 33.642,34.146C38.249,30.724 43.373,27.359 48.9,24.127L48.99,-2.298C48.992,-2.849 49.439,-3.294 49.99,-3.294L49.993,-3.294C50.545,-3.292 50.992,-2.843 50.99,-2.29L50.84,41.608C51.988,41.442 53.259,41.35 54.686,41.35C55.145,41.35 55.621,41.359 56.111,41.377C56.663,41.398 57.094,41.861 57.073,42.413C57.052,42.964 56.588,43.437 56.036,43.375C43.493,42.919 42.965,48.271 42.065,57.156C41.617,61.578 41.109,66.591 38.943,71.738C38.665,72.433 38.467,73.426 39.102,74.201C39.707,74.94 40.916,75.291 42.101,75.07C43.497,74.812 44.568,73.852 45.024,72.49C45.03,72.466 45.695,69.977 46.477,64.809C46.661,63.867 46.997,63.124 47.415,62.502C47.422,62.491 47.427,62.48 47.435,62.47C48.219,61.318 49.297,60.605 50.295,59.956C52.27,58.671 53.975,57.561 53.557,53.029C53.506,52.479 53.911,51.992 54.461,51.941C55.006,51.891 55.498,52.295 55.548,52.845C56.077,58.578 53.476,60.272 51.385,61.632C50.944,61.919 50.537,62.19 50.166,62.477C50.98,62.93 51.706,63.771 51.972,65.19C51.984,65.254 51.99,65.32 51.989,65.385L51.676,95.374C51.676,96.103 51.869,96.687 52.235,97.062C52.536,97.371 52.964,97.541 53.439,97.541C54.675,97.541 55.989,96.432 55.989,94.375L55.989,77.375C55.969,77.374 55.944,77.373 55.933,77.372C55.382,77.342 54.96,76.87 54.991,76.318C55.021,75.767 55.506,75.35 56.044,75.376C56.188,75.381 70.246,76.077 76.844,69.48C77.039,69.285 77.295,69.187 77.551,69.187C77.807,69.187 78.063,69.285 78.258,69.48C78.649,69.871 78.649,70.503 78.258,70.894C78.022,71.13 77.778,71.357 77.527,71.576L79.12,86.881C79.262,88.282 80.148,89.077 80.822,89.077C81.558,89.04 82.301,87.976 82.303,85.748L80.322,53.479C80.321,53.428 80.166,48.425 76.733,45.547C74.561,43.726 71.501,43.103 67.641,43.695C67.095,43.779 66.584,43.405 66.501,42.858C66.417,42.312 66.792,41.802 67.337,41.718C68.385,41.557 69.385,41.477 70.336,41.477C71.817,41.477 73.175,41.677 74.414,42.065L74.989,-2.311C74.996,-2.859 75.443,-3.298 75.989,-3.298L76.003,-3.298C76.555,-3.291 76.997,-2.837 76.99,-2.285L76.651,23.869C82.323,27.165 87.591,30.616 92.339,34.143C92.765,33.505 93.287,32.889 93.936,32.345C94.284,32.052 94.657,31.797 95.047,31.569L94.599,-2.284C94.592,-2.837 95.034,-3.29 95.586,-3.298L95.6,-3.298C96.146,-3.298 96.592,-2.859 96.6,-2.312L97.037,30.732C97.928,30.482 98.892,30.349 99.934,30.349C100.677,30.349 101.457,30.413 102.274,30.54C102.82,30.626 103.193,31.137 103.107,31.683C103.023,32.229 102.509,32.598 101.965,32.517C99.106,32.07 96.839,32.525 95.233,33.868C92.631,36.042 92.509,39.903 92.507,39.973L91.191,64.957C91.062,65.944 91.538,66.486 92.034,66.571C92.536,66.659 92.922,66.293 93.06,65.655L94.639,55.371C94.649,55.305 94.666,55.239 94.689,55.176C94.745,55.023 94.821,54.886 94.906,54.757C94.478,54.425 94.069,54.068 93.688,53.68C93.301,53.285 93.307,52.653 93.701,52.266C93.895,52.075 94.149,51.979 94.402,51.979C94.661,51.979 94.92,52.079 95.115,52.278C100.1,57.35 110.777,56.815 110.885,56.811C111.429,56.784 111.909,57.202 111.939,57.753C111.965,58.203 111.681,58.586 111.279,58.733L112.543,71.903C112.627,72.995 113.121,73.858 113.864,74.213C114.27,74.407 114.697,74.408 114.976,74.216C115.298,73.993 115.445,73.506 115.39,72.829L113.779,49.29C113.773,49.207 113.778,49.123 113.793,49.041C113.982,48.015 114.46,47.357 115.023,46.948C114.809,46.792 114.581,46.639 114.339,46.479C112.687,45.385 110.631,44.023 111.047,39.422C111.097,38.872 111.582,38.454 112.133,38.516C112.683,38.566 113.089,39.052 113.039,39.602C112.73,43.014 113.927,43.808 115.443,44.812C116.224,45.329 117.069,45.896 117.691,46.824C117.699,46.835 117.704,46.847 117.711,46.858C118.049,47.372 118.322,47.991 118.474,48.782C119.058,52.717 119.563,54.668 119.562,54.668C120.021,56.069 121.057,56.463 121.633,56.572C122.451,56.729 123.28,56.494 123.697,55.992C124.048,55.569 124.082,54.987 123.804,54.28C122.126,50.22 121.735,46.292 121.389,42.825C120.711,36.019 120.298,31.928 110.914,32.266C110.344,32.3 109.897,31.858 109.876,31.305C109.855,30.753 110.286,30.288 110.837,30.268C111.222,30.253 111.595,30.246 111.955,30.246C112.953,30.246 113.833,30.316 114.656,30.422L114.541,-2.294C114.539,-2.847 114.985,-3.296 115.538,-3.298L115.541,-3.298C116.092,-3.298 116.539,-2.853 116.541,-2.302L116.657,30.803C122.354,32.396 122.84,37.22 123.378,42.627C123.71,45.956 124.085,49.73 125.657,53.533C126.217,54.946 126.067,56.272 125.24,57.269ZM64.039,104.361C64.044,104.357 64.046,104.352 64.051,104.348C64.063,104.339 64.078,104.339 64.091,104.331C64.82,103.865 65.37,102.965 65.37,101.645C65.314,99.058 65.155,95.058 64.987,90.824C64.783,85.695 64.573,80.415 64.513,76.875C63.362,77.052 62.266,77.173 61.264,77.253C61.107,82.656 61.007,96.344 60.998,102.41C60.998,103.175 61.205,103.789 61.595,104.188C61.669,104.264 61.752,104.329 61.838,104.389C61.856,104.4 61.878,104.402 61.895,104.414C61.904,104.42 61.908,104.431 61.917,104.437C62.194,104.606 62.521,104.701 62.873,104.701C63.277,104.703 63.677,104.58 64.039,104.361ZM18.551,74.243C18.493,76.151 18.448,77.641 18.447,78.255C18.447,78.797 18.584,79.226 18.844,79.496C19.105,79.767 19.427,79.825 19.652,79.825C20.488,79.825 21.334,79.074 21.334,77.662C21.278,75.032 21.142,62.932 21.303,58.461C20.374,58.597 19.496,58.687 18.706,58.743C18.936,61.486 18.705,69.149 18.551,74.243ZM25.265,57.602C25.273,57.636 25.286,57.667 25.292,57.701C25.298,57.738 25.303,57.774 25.305,57.811L26.234,72.728C26.34,73.609 26.745,74.106 27.325,74.08C27.865,74.048 28.411,73.531 28.413,72.658C28.407,72.545 27.845,61.919 27.484,56.814C26.755,57.12 26.011,57.381 25.265,57.602ZM53.445,99.54C52.426,99.54 51.49,99.155 50.809,98.457C50.295,97.931 49.683,96.968 49.683,95.363L49.995,65.467C49.777,64.448 49.241,64.144 48.812,64.069C48.659,64.385 48.534,64.736 48.453,65.148C47.661,70.385 46.989,72.905 46.944,73.065C46.234,75.194 44.603,76.641 42.47,77.035C40.557,77.391 38.631,76.772 37.561,75.467C36.583,74.274 36.416,72.686 37.098,70.978C39.155,66.09 39.646,61.236 40.08,56.953C40.776,50.085 41.402,43.966 48.843,42.005L48.896,26.452C43.723,29.519 38.922,32.701 34.593,35.931C35.423,37.955 35.473,39.769 35.475,39.869L36.778,64.699C37.065,66.893 35.743,68.295 34.29,68.545C32.991,68.771 31.398,68.071 30.949,65.96L29.44,56.134C29.799,61.011 30.404,72.439 30.411,72.608C30.411,74.747 28.883,75.993 27.445,76.08C26.039,76.146 24.521,75.235 24.243,72.914L23.319,58.105C23.132,62.102 23.276,74.911 23.334,77.642C23.334,80.36 21.437,81.827 19.652,81.827C18.785,81.827 17.985,81.492 17.402,80.884C16.966,80.431 16.447,79.607 16.447,78.256C16.448,77.632 16.493,76.121 16.552,74.185C16.697,69.408 16.938,61.421 16.712,58.833L16.709,58.833L15.439,72.061C15.299,73.874 14.381,75.355 12.984,76.021C11.916,76.532 10.753,76.472 9.875,75.865C9.333,75.491 8.447,74.579 8.603,72.696L9.287,62.703C-3.877,85.046 2.537,105.862 16.352,115.364C28.097,123.444 46.653,123.673 59.976,105.378C59.493,104.802 58.998,103.86 58.998,102.41C59.007,96.401 59.105,82.925 59.26,77.374C58.797,77.392 58.377,77.401 57.996,77.405L57.996,94.374C57.995,97.729 55.651,99.54 53.445,99.54ZM72.856,74.516C71.821,74.985 70.753,75.378 69.679,75.708L70.3,95.3C70.457,96.577 71.138,97.332 72.047,97.279C72.891,97.227 73.745,96.466 73.746,95.147C73.74,94.985 73.184,80.319 72.856,74.516ZM97.579,72.606C97.579,73.532 98.125,74.048 98.665,74.081C99.235,74.101 99.65,73.61 99.751,72.787L100.685,57.812C100.687,57.775 100.692,57.739 100.698,57.702C100.704,57.667 100.717,57.636 100.725,57.603C99.979,57.382 99.235,57.12 98.506,56.815C98.145,61.919 97.583,72.543 97.579,72.606ZM104.656,77.64C104.656,79.074 105.502,79.825 106.338,79.825C106.563,79.825 106.885,79.767 107.146,79.496C107.406,79.225 107.543,78.797 107.543,78.256C107.542,77.642 107.497,76.152 107.439,74.243C107.285,69.149 107.054,61.486 107.283,58.743C106.493,58.687 105.615,58.597 104.686,58.461C104.848,62.931 104.712,75.031 104.656,77.64ZM113.007,76.018C111.61,75.352 110.693,73.872 110.554,72.077L109.283,58.832C109.051,61.378 109.294,69.394 109.439,74.183C109.498,76.12 109.543,77.63 109.544,78.255C109.544,79.605 109.024,80.429 108.589,80.882C108.005,81.49 107.206,81.825 106.339,81.825C104.554,81.825 102.657,80.358 102.657,77.619C102.715,74.911 102.859,62.123 102.672,58.104L101.743,72.969C101.471,75.232 99.954,76.142 98.546,76.077C97.108,75.99 95.58,74.744 95.581,72.553C95.587,72.436 96.192,60.999 96.552,56.128L95.032,66.016C94.591,68.071 93,68.767 91.7,68.544C90.247,68.294 88.926,66.893 89.205,64.775L90.513,39.901C90.515,39.781 90.566,37.958 91.397,35.93C86.918,32.588 81.96,29.312 76.626,26.17L76.41,42.907C76.988,43.227 77.532,43.6 78.04,44.027C82.167,47.5 82.325,53.197 82.328,53.396L84.309,85.686C84.309,89.533 82.564,90.992 80.931,91.074C78.988,91.184 77.378,89.454 77.139,87.085L75.671,72.979C75.386,73.166 75.096,73.345 74.801,73.516C75.12,78.535 75.72,94.372 75.747,95.11C75.747,97.674 73.905,99.171 72.171,99.276C70.505,99.394 68.651,98.264 68.31,95.455L67.697,76.251C67.299,76.347 66.902,76.437 66.509,76.518C66.561,80.027 66.777,85.467 66.987,90.746C67.156,94.989 67.316,98.998 67.372,101.625C67.372,103.24 66.813,104.485 65.99,105.341C79.304,123.659 97.861,123.451 109.619,115.378C123.451,105.879 129.877,85.061 116.705,62.701L117.388,72.68C117.545,74.576 116.659,75.489 116.117,75.863C115.237,76.469 114.075,76.529 113.007,76.018Z" style="fill:rgb(58,50,43);fill-rule:nonzero;"/>
            </g>
        </g>
    </g>
</svg>
